<svg version="1.1" xmlns="http://www.w3.org/2000/svg" viewBox="0 0 983.9233900523188 460.22370861571017" width="983.9233900523188" height="460.22370861571017">
  <!-- svg-source:excalidraw -->
  
  <defs>
    <style class="style-fonts">
      @font-face {
        font-family: "Virgil";
        src: url("https://excalidraw.com/Virgil.woff2");
      }
      @font-face {
        font-family: "Cascadia";
        src: url("https://excalidraw.com/Cascadia.woff2");
      }
      @font-face {
        font-family: "Assistant";
        src: url("https://excalidraw.com/Assistant-Regular.woff2");
      }
    </style>
    
  </defs>
  <rect x="0" y="0" width="983.9233900523188" height="460.22370861571017" fill="#ffffff"></rect><g stroke-linecap="round"><g transform="translate(193.4452601346835 118.41622131753297) rotate(359.3264660655384 67.0827599418102 21.988833001431033)" fill-rule="evenodd"><path d="M0 0 C0 0, 0 0, 0 0 M0 0 C0 0, 0 0, 0 0 M3.02 2.62 C3.79 1.9, 4.66 0.73, 4.99 0.36 M3.02 2.62 C3.75 1.88, 4.06 1.17, 4.99 0.36 M6.04 5.25 C7.02 4.26, 8.7 2.63, 10.63 -0.03 M6.04 5.25 C7.4 3.7, 8.47 2.19, 10.63 -0.03 M9.06 7.87 C12.04 6.57, 13.53 3.02, 15.62 0.33 M9.06 7.87 C11.4 5.17, 14.04 2.72, 15.62 0.33 M12.08 10.5 C13.36 6.25, 15.7 5.05, 21.26 -0.07 M12.08 10.5 C15.05 7.76, 17.63 3.26, 21.26 -0.07 M15.75 12.37 C20.06 7.58, 21.37 5.27, 26.25 0.29 M15.75 12.37 C18.58 9.06, 21.39 5.34, 26.25 0.29 M18.77 14.99 C23.55 11.23, 27.64 6.09, 31.89 -0.1 M18.77 14.99 C24.1 9.91, 28.19 3.41, 31.89 -0.1 M21.79 17.61 C23.46 12.81, 27.51 9.1, 36.88 0.26 M21.79 17.61 C27.38 10.65, 32.81 4.72, 36.88 0.26 M3.81 44.39 C6.01 41.05, 8.08 37.49, 13.65 33.07 M3.81 44.39 C6.26 40.38, 10.46 37.19, 13.65 33.07 M24.81 20.24 C31.64 12.8, 34.86 7.23, 42.52 -0.14 M24.81 20.24 C32.08 12.06, 37.36 4.71, 42.52 -0.14 M9.46 44 C20.09 35.91, 25.3 25.66, 47.51 0.22 M9.46 44 C18.33 35.12, 27.08 25.03, 47.51 0.22 M14.44 44.36 C23.75 37.33, 27.98 25.65, 53.15 -0.17 M14.44 44.36 C24.88 32.68, 36.38 20.11, 53.15 -0.17 M20.09 43.96 C28.3 33.67, 38.76 20.23, 58.14 0.19 M20.09 43.96 C30.61 33.34, 40.3 21.61, 58.14 0.19 M25.07 44.32 C36.46 28.1, 51.54 15.21, 63.78 -0.21 M25.07 44.32 C34.89 32.64, 43.81 22.61, 63.78 -0.21 M30.72 43.93 C42.44 27.13, 57.04 13.08, 68.77 0.15 M30.72 43.93 C43.81 29.19, 56.9 14.01, 68.77 0.15 M35.7 44.29 C47.81 32.18, 58.02 15.4, 74.41 -0.24 M35.7 44.29 C49.58 28.03, 64.59 12.59, 74.41 -0.24 M41.35 43.89 C51.52 34.36, 61.1 25.43, 79.4 0.12 M41.35 43.89 C54.38 29.48, 66.13 16.28, 79.4 0.12 M46.33 44.25 C58.96 30.69, 69.43 18.9, 85.04 -0.28 M46.33 44.25 C59.54 30.15, 71.03 14.48, 85.04 -0.28 M51.98 43.86 C63.87 30.73, 75.29 15.85, 90.03 0.08 M51.98 43.86 C61.15 32.91, 68.93 24.1, 90.03 0.08 M56.96 44.22 C69.95 31.26, 80.35 16.49, 95.67 -0.31 M56.96 44.22 C69.2 29.09, 82.28 13.81, 95.67 -0.31 M62.61 43.82 C73.37 29.46, 84.23 18.04, 100.66 0.05 M62.61 43.82 C72.98 31.87, 83.58 20.55, 100.66 0.05 M67.59 44.18 C78.15 33.56, 84.02 21.68, 106.3 -0.34 M67.59 44.18 C78.06 33.87, 86.63 20.91, 106.3 -0.34 M73.24 43.79 C85.3 30.77, 95.77 18.29, 109.32 2.28 M73.24 43.79 C88.29 26.82, 101.19 10.98, 109.32 2.28 M78.22 44.15 C87.99 35.2, 96.86 20.96, 112.99 4.15 M78.22 44.15 C91.08 29.24, 103.4 13.8, 112.99 4.15 M83.87 43.75 C91.77 34.94, 103.48 21.7, 116.01 6.77 M83.87 43.75 C93.49 31.03, 104.15 19.47, 116.01 6.77 M88.85 44.11 C99.04 31.46, 109.59 20.32, 119.03 9.4 M88.85 44.11 C97.02 32.89, 107.56 23.33, 119.03 9.4 M94.5 43.72 C104.25 35.87, 112.76 24.93, 122.05 12.02 M94.5 43.72 C104.53 32.09, 114.08 19.54, 122.05 12.02 M99.48 44.08 C106.2 34.41, 114.3 28.49, 125.07 14.65 M99.48 44.08 C107.07 35.06, 115.06 26.83, 125.07 14.65 M104.47 44.44 C107.52 41.02, 114.51 35.47, 128.09 17.27 M104.47 44.44 C113.54 33.57, 122.87 22.9, 128.09 17.27 M116.67 36.5 C119.6 31.59, 123.72 27.78, 131.11 19.89 M116.67 36.5 C120.48 32.38, 123.56 28.4, 131.11 19.89" stroke="#868e96" stroke-width="0.5" fill="none"></path><path d="M0 0 C4.32 5.22, 12.11 10.86, 26.83 21.99 M0 0 C9.72 7.56, 19.36 16.08, 26.83 21.99 M26.83 21.99 C18.59 29.52, 12.78 33.13, 0 43.98 M26.83 21.99 C21.46 26.21, 15.53 31.82, 0 43.98 M0 43.98 C35.35 42.52, 72.55 42.93, 107.33 43.98 M0 43.98 C30.85 43.07, 61.46 43.58, 107.33 43.98 M107.33 43.98 C113.9 38.83, 124.49 30.72, 134.17 21.99 M107.33 43.98 C113.82 38.21, 119.88 33.79, 134.17 21.99 M134.17 21.99 C127.24 18.12, 123.13 11.63, 107.33 0 M134.17 21.99 C127.89 15.6, 120.22 11.06, 107.33 0 M107.33 0 C64.88 -1.54, 21.67 -2.72, 0 0 M107.33 0 C82.87 -0.74, 57.07 -0.12, 0 0 M0 0 C0 0, 0 0, 0 0 M0 0 C0 0, 0 0, 0 0" stroke="#000000" stroke-width="1" fill="none"></path></g></g><mask></mask><g transform="translate(231.37233316833579 129.1668361314542) rotate(359.3264660655384 38.02916717529297 11.825227436807296)"><text x="0" y="16.574238775429112" font-family="Virgil, Segoe UI Emoji" font-size="18.920363898891683px" fill="#1e1e1e" text-anchor="start" style="white-space: pre;" direction="ltr" dominant-baseline="alphabetic">validate</text></g><g stroke-linecap="round"><g transform="translate(300.9685315351644 117.65493745928512) rotate(359.3264660655384 67.0827599418102 21.988833001431004)" fill-rule="evenodd"><path d="M0 0 C0 0, 0 0, 0 0 M0 0 C0 0, 0 0, 0 0 M3.02 2.62 C3.62 1.84, 4.37 1.14, 4.99 0.36 M3.02 2.62 C3.4 2.11, 4 1.75, 4.99 0.36 M6.04 5.25 C7.32 3.09, 9.25 2, 10.63 -0.03 M6.04 5.25 C7.65 3.45, 8.49 2.34, 10.63 -0.03 M9.06 7.87 C10.9 6.58, 12.08 5.02, 15.62 0.33 M9.06 7.87 C10.57 6.21, 12.61 3.9, 15.62 0.33 M12.08 10.5 C14.07 8.09, 18.51 4.97, 21.26 -0.07 M12.08 10.5 C15.32 7.62, 16.97 4.45, 21.26 -0.07 M15.75 12.37 C21.07 8.56, 25.48 3.98, 26.25 0.29 M15.75 12.37 C18.29 9.61, 20.27 7.24, 26.25 0.29 M18.77 14.99 C21.91 11.25, 24.3 5.7, 31.89 -0.1 M18.77 14.99 C22.54 10.11, 26.8 5.59, 31.89 -0.1 M21.79 17.61 C28.25 12.64, 34.37 3.88, 36.88 0.26 M21.79 17.61 C24.94 13.66, 28.14 10.66, 36.88 0.26 M3.81 44.39 C7.84 39.39, 8.52 37.01, 13.65 33.07 M3.81 44.39 C6.25 41.06, 10.33 36.97, 13.65 33.07 M24.81 20.24 C29.84 12.5, 36.5 3.91, 42.52 -0.14 M24.81 20.24 C30.6 11.51, 37.74 4.36, 42.52 -0.14 M9.46 44 C17.54 32.61, 29.19 23.3, 47.51 0.22 M9.46 44 C21.96 28.74, 36.62 13.86, 47.51 0.22 M14.44 44.36 C23.89 34.42, 28.55 26.24, 53.15 -0.17 M14.44 44.36 C23.02 34.32, 32.57 23.07, 53.15 -0.17 M20.09 43.96 C28.32 32.34, 39.57 19.77, 58.14 0.19 M20.09 43.96 C30.7 33.09, 40.31 20.57, 58.14 0.19 M25.07 44.32 C35.36 34.79, 42.36 27.05, 63.78 -0.21 M25.07 44.32 C34.87 33.51, 43.63 22.72, 63.78 -0.21 M30.72 43.93 C42.73 28.01, 56.01 10.73, 68.77 0.15 M30.72 43.93 C45.67 26.35, 59.5 10.27, 68.77 0.15 M35.7 44.29 C49.49 28.95, 62.4 12.13, 74.41 -0.24 M35.7 44.29 C46.05 31.44, 57.76 17, 74.41 -0.24 M41.35 43.89 C48.96 35.35, 57.71 25.13, 79.4 0.12 M41.35 43.89 C50.62 32.18, 61.63 20.08, 79.4 0.12 M46.33 44.25 C58.29 30.85, 68.84 19.55, 85.04 -0.28 M46.33 44.25 C54.84 33.44, 64.47 23.59, 85.04 -0.28 M51.98 43.86 C63.65 32.86, 71.69 19.59, 90.03 0.08 M51.98 43.86 C60.5 34.92, 68.33 26.8, 90.03 0.08 M56.96 44.22 C66.09 31.5, 78.02 21.29, 95.67 -0.31 M56.96 44.22 C68.28 30.92, 79.93 18.11, 95.67 -0.31 M62.61 43.82 C70.61 34.93, 77.8 24, 100.66 0.05 M62.61 43.82 C76.31 28.38, 89.94 12.8, 100.66 0.05 M67.59 44.18 C82.58 28.99, 96.59 8.79, 106.3 -0.34 M67.59 44.18 C80.17 30.41, 91.96 14.85, 106.3 -0.34 M73.24 43.79 C81.07 34.47, 90.96 25.66, 109.32 2.28 M73.24 43.79 C85.27 29.12, 97.67 15.49, 109.32 2.28 M78.22 44.15 C91.91 27.83, 105.09 14.16, 112.99 4.15 M78.22 44.15 C88.97 31.62, 99.96 19.48, 112.99 4.15 M83.87 43.75 C90.5 34.17, 99.7 28.96, 116.01 6.77 M83.87 43.75 C94.67 31.19, 105.08 20.7, 116.01 6.77 M88.85 44.11 C96.13 36.43, 102.37 27.31, 119.03 9.4 M88.85 44.11 C96.09 35.67, 105.34 25.64, 119.03 9.4 M94.5 43.72 C99 36.21, 105.92 28.68, 122.05 12.02 M94.5 43.72 C102.05 34.05, 109.09 25.06, 122.05 12.02 M99.48 44.08 C106.96 35.7, 112.67 29.58, 125.07 14.65 M99.48 44.08 C109.18 32.93, 116.88 22.55, 125.07 14.65 M104.47 44.44 C110.27 38.03, 118.36 27.36, 128.09 17.27 M104.47 44.44 C112.49 34.75, 118.87 25.87, 128.09 17.27 M116.67 36.5 C120.25 29.46, 128.67 23.52, 131.11 19.89 M116.67 36.5 C122.41 31.3, 126.41 24.56, 131.11 19.89" stroke="#868e96" stroke-width="0.5" fill="none"></path><path d="M0 0 C5.67 4.86, 12.05 9.72, 26.83 21.99 M0 0 C6.96 5.51, 13.86 11.62, 26.83 21.99 M26.83 21.99 C20.81 27.04, 12.98 33.41, 0 43.98 M26.83 21.99 C18.83 28.05, 12.16 33.96, 0 43.98 M0 43.98 C40.09 41.73, 77.82 41.85, 107.33 43.98 M0 43.98 C35.43 45.07, 70.97 45.15, 107.33 43.98 M107.33 43.98 C115.21 38.73, 123.48 32.99, 134.17 21.99 M107.33 43.98 C115.08 36.09, 124.77 30.32, 134.17 21.99 M134.17 21.99 C127.98 17.15, 119.9 8.89, 107.33 0 M134.17 21.99 C126.52 15.93, 121.68 10.58, 107.33 0 M107.33 0 C70.04 0.64, 36.06 1.47, 0 0 M107.33 0 C80.95 0.43, 53.19 1.07, 0 0 M0 0 C0 0, 0 0, 0 0 M0 0 C0 0, 0 0, 0 0" stroke="#000000" stroke-width="1" fill="none"></path></g></g><mask></mask><g transform="translate(339.24614780406364 128.65848369845645) rotate(359.3264660655384 30.37603759765625 11.825227436807296)"><text x="0" y="16.574238775429112" font-family="Virgil, Segoe UI Emoji" font-size="18.920363898891683px" fill="#1e1e1e" text-anchor="start" style="white-space: pre;" direction="ltr" dominant-baseline="alphabetic">compile</text></g><g stroke-linecap="round"><g transform="translate(409.0095459526882 116.62548121099343) rotate(359.3264660655384 67.0827599418102 21.988833001431004)" fill-rule="evenodd"><path d="M0 0 C0 0, 0 0, 0 0 M0 0 C0 0, 0 0, 0 0 M3.02 2.62 C3.56 1.72, 4.32 0.87, 4.99 0.36 M3.02 2.62 C3.63 1.81, 4.61 0.81, 4.99 0.36 M6.04 5.25 C7.22 3.89, 8.35 2.17, 10.63 -0.03 M6.04 5.25 C6.96 4.41, 7.77 3.16, 10.63 -0.03 M9.06 7.87 C11.31 6.82, 12.22 4.84, 15.62 0.33 M9.06 7.87 C10.54 5.8, 12.01 4.22, 15.62 0.33 M12.08 10.5 C16.14 6.98, 18.3 2.72, 21.26 -0.07 M12.08 10.5 C14.47 8.3, 16.49 5.68, 21.26 -0.07 M15.75 12.37 C18.96 7.86, 21.02 7.37, 26.25 0.29 M15.75 12.37 C18.86 8.17, 23.63 4.54, 26.25 0.29 M18.77 14.99 C21.58 9.58, 25.98 4.26, 31.89 -0.1 M18.77 14.99 C24.63 9.52, 29.56 3.5, 31.89 -0.1 M21.79 17.61 C27.39 13.92, 30.71 8.8, 36.88 0.26 M21.79 17.61 C26.55 12.35, 28.76 8.65, 36.88 0.26 M3.81 44.39 C6.04 41.59, 8.26 38.29, 13.65 33.07 M3.81 44.39 C6.76 41.61, 9.92 38.2, 13.65 33.07 M24.81 20.24 C30.66 15.2, 31.15 11.96, 42.52 -0.14 M24.81 20.24 C28.68 15.17, 33.19 11.99, 42.52 -0.14 M9.46 44 C23.06 31.33, 33.69 17.31, 47.51 0.22 M9.46 44 C18.33 32.07, 30.07 20.81, 47.51 0.22 M14.44 44.36 C23.15 35.68, 30.65 24.99, 53.15 -0.17 M14.44 44.36 C25.13 31.17, 37.29 18.67, 53.15 -0.17 M20.09 43.96 C27.22 35.38, 38.89 22.59, 58.14 0.19 M20.09 43.96 C29.22 34.17, 36.9 24.96, 58.14 0.19 M25.07 44.32 C36.09 27.3, 49.09 14.46, 63.78 -0.21 M25.07 44.32 C36.57 31.78, 47.77 18.89, 63.78 -0.21 M30.72 43.93 C39.88 31.91, 51.55 21.84, 68.77 0.15 M30.72 43.93 C41.71 31.78, 52.1 19.88, 68.77 0.15 M35.7 44.29 C51.98 28.08, 62.79 11.41, 74.41 -0.24 M35.7 44.29 C46.25 30.63, 56.21 19.85, 74.41 -0.24 M41.35 43.89 C51.38 35.59, 58.54 24.39, 79.4 0.12 M41.35 43.89 C53.94 29.94, 66.08 15.92, 79.4 0.12 M46.33 44.25 C60.27 27.9, 74.81 14.61, 85.04 -0.28 M46.33 44.25 C54.79 32.33, 65.41 22.7, 85.04 -0.28 M51.98 43.86 C65.62 26.91, 76.43 11.7, 90.03 0.08 M51.98 43.86 C61.75 33.62, 71.19 22.74, 90.03 0.08 M56.96 44.22 C64.38 33.24, 74.86 27.01, 95.67 -0.31 M56.96 44.22 C70.97 27.25, 86.46 9.13, 95.67 -0.31 M62.61 43.82 C75.6 27.2, 92.08 10.77, 100.66 0.05 M62.61 43.82 C73.16 30.26, 83.8 18.99, 100.66 0.05 M67.59 44.18 C77.2 31.68, 90.3 18.33, 106.3 -0.34 M67.59 44.18 C79.46 31.45, 89.47 18.93, 106.3 -0.34 M73.24 43.79 C81.12 30.7, 91.24 21.17, 109.32 2.28 M73.24 43.79 C84.92 30.77, 97.32 16.33, 109.32 2.28 M78.22 44.15 C86.29 33.65, 95.61 24.56, 112.99 4.15 M78.22 44.15 C88.05 32.13, 97.96 20.4, 112.99 4.15 M83.87 43.75 C94.56 31.32, 104.14 19.48, 116.01 6.77 M83.87 43.75 C93.79 31.91, 105.96 18.97, 116.01 6.77 M88.85 44.11 C101.94 30.69, 112.63 18.71, 119.03 9.4 M88.85 44.11 C99.64 31.14, 110.87 18.37, 119.03 9.4 M94.5 43.72 C104.03 31.56, 111.12 23.5, 122.05 12.02 M94.5 43.72 C105.19 30.91, 116.81 18.86, 122.05 12.02 M99.48 44.08 C107.12 35.39, 112.59 29.36, 125.07 14.65 M99.48 44.08 C105.2 37.74, 110.4 30.72, 125.07 14.65 M104.47 44.44 C110.25 38.09, 115.58 32.04, 128.09 17.27 M104.47 44.44 C110.13 38.36, 117.18 31.95, 128.09 17.27 M116.67 36.5 C122.24 31.84, 126.85 26.8, 131.11 19.89 M116.67 36.5 C119.15 33.01, 122.85 30.23, 131.11 19.89" stroke="#868e96" stroke-width="0.5" fill="none"></path><path d="M0 0 C9.72 6.88, 21.75 14.75, 26.83 21.99 M0 0 C6.92 5.56, 14.23 12.7, 26.83 21.99 M26.83 21.99 C14.48 28.67, 6.87 39.23, 0 43.98 M26.83 21.99 C17.14 30.71, 5.38 39.46, 0 43.98 M0 43.98 C24.21 44.39, 44.48 43.2, 107.33 43.98 M0 43.98 C29.41 43.45, 57.65 43.58, 107.33 43.98 M107.33 43.98 C113.78 39.22, 120.44 30.62, 134.17 21.99 M107.33 43.98 C114.94 38.05, 123.5 29.74, 134.17 21.99 M134.17 21.99 C124.92 15.88, 117.38 7.36, 107.33 0 M134.17 21.99 C125.74 14.77, 118.1 9.45, 107.33 0 M107.33 0 C79.12 1.54, 50.12 -1.28, 0 0 M107.33 0 C79.2 0.37, 50.84 -1.27, 0 0 M0 0 C0 0, 0 0, 0 0 M0 0 C0 0, 0 0, 0 0" stroke="#000000" stroke-width="1" fill="none"></path></g></g><mask></mask><g transform="translate(455.5356273816675 128.06219870900782) rotate(359.3264660655384 21.001182556152344 11.825227436807296)"><text x="0" y="16.574238775429112" font-family="Virgil, Segoe UI Emoji" font-size="18.920363898891683px" fill="#1e1e1e" text-anchor="start" style="white-space: pre;" direction="ltr" dominant-baseline="alphabetic">test</text></g><g stroke-linecap="round"><g transform="translate(516.7883891185996 115.65074887897356) rotate(359.3264660655384 67.08275994181025 21.988833001431033)" fill-rule="evenodd"><path d="M0 0 C0 0, 0 0, 0 0 M0 0 C0 0, 0 0, 0 0 M3.02 2.62 C4 2.06, 4.68 1.23, 4.99 0.36 M3.02 2.62 C3.79 1.79, 4.7 0.86, 4.99 0.36 M6.04 5.25 C6.78 3.73, 8.35 2.98, 10.63 -0.03 M6.04 5.25 C7.31 3.73, 9.35 1.85, 10.63 -0.03 M9.06 7.87 C11.44 5.41, 13.38 2.48, 15.62 0.33 M9.06 7.87 C11.62 5.74, 13.86 2.94, 15.62 0.33 M12.08 10.5 C14.51 7.22, 18.27 3.39, 21.26 -0.07 M12.08 10.5 C13.83 7.71, 15.44 6.38, 21.26 -0.07 M15.75 12.37 C19.05 7.63, 23.37 2.62, 26.25 0.29 M15.75 12.37 C17.95 9.66, 21.63 6.13, 26.25 0.29 M18.77 14.99 C22.9 9.94, 26.23 7.72, 31.89 -0.1 M18.77 14.99 C22.79 10.78, 25.88 5.2, 31.89 -0.1 M21.79 17.61 C26.79 14.12, 28.45 9.33, 36.88 0.26 M21.79 17.61 C26 13.85, 30.32 9.76, 36.88 0.26 M3.81 44.39 C6.77 40.41, 11.39 35.49, 13.65 33.07 M3.81 44.39 C6.2 41.46, 8.81 39.78, 13.65 33.07 M24.81 20.24 C28.89 16.41, 30.8 11.85, 42.52 -0.14 M24.81 20.24 C29.69 13.9, 34.01 9.45, 42.52 -0.14 M9.46 44 C22.34 29.07, 35.91 12.78, 47.51 0.22 M9.46 44 C20.05 34.04, 27.52 23.55, 47.51 0.22 M14.44 44.36 C28.84 28.84, 40.76 10.67, 53.15 -0.17 M14.44 44.36 C29.44 26.25, 44.57 9.75, 53.15 -0.17 M20.09 43.96 C33.12 29, 45.17 11.92, 58.14 0.19 M20.09 43.96 C33.66 27.5, 47.71 12.23, 58.14 0.19 M25.07 44.32 C34.79 34.03, 43.77 21.47, 63.78 -0.21 M25.07 44.32 C37.88 31.03, 48.48 16.9, 63.78 -0.21 M30.72 43.93 C43.73 31.1, 56.82 16.05, 68.77 0.15 M30.72 43.93 C38.35 34.42, 47.09 26.46, 68.77 0.15 M35.7 44.29 C43.25 33.47, 53.25 20.34, 74.41 -0.24 M35.7 44.29 C46.39 30.33, 57.86 16.82, 74.41 -0.24 M41.35 43.89 C55.84 26.75, 70.67 8.25, 79.4 0.12 M41.35 43.89 C54.63 28.32, 68.44 12.86, 79.4 0.12 M46.33 44.25 C55.98 34.77, 64.81 24.28, 85.04 -0.28 M46.33 44.25 C55.78 34.24, 65.27 23.15, 85.04 -0.28 M51.98 43.86 C57.91 34.93, 66.81 24.24, 90.03 0.08 M51.98 43.86 C66.92 26.67, 80.83 11.45, 90.03 0.08 M56.96 44.22 C68.99 26.35, 84.58 13.31, 95.67 -0.31 M56.96 44.22 C69.06 30.44, 83.44 15.48, 95.67 -0.31 M62.61 43.82 C70.83 33.88, 80.89 23.45, 100.66 0.05 M62.61 43.82 C72.45 33.19, 81.73 22.67, 100.66 0.05 M67.59 44.18 C75.36 34.66, 85.09 27.25, 106.3 -0.34 M67.59 44.18 C76.6 32.82, 87.55 21.51, 106.3 -0.34 M73.24 43.79 C83.03 31.58, 93.42 21.47, 109.32 2.28 M73.24 43.79 C84.16 31.41, 95.4 19.61, 109.32 2.28 M78.22 44.15 C86.46 32.64, 95.7 25, 112.99 4.15 M78.22 44.15 C89.3 30.01, 101.39 15.86, 112.99 4.15 M83.87 43.75 C92.91 31.35, 103.53 19.55, 116.01 6.77 M83.87 43.75 C91.25 33.96, 100.72 25.48, 116.01 6.77 M88.85 44.11 C93.15 35.24, 100.89 27.76, 119.03 9.4 M88.85 44.11 C96.49 33.67, 105.54 23.48, 119.03 9.4 M94.5 43.72 C102.9 35.03, 108.29 27.61, 122.05 12.02 M94.5 43.72 C100.37 36.16, 107.69 28.34, 122.05 12.02 M99.48 44.08 C108.09 34.71, 116.46 26.22, 125.07 14.65 M99.48 44.08 C110.16 33.94, 119.2 22.42, 125.07 14.65 M104.47 44.44 C110.6 39.36, 114.94 30.66, 128.09 17.27 M104.47 44.44 C111.94 34.77, 120.8 25.26, 128.09 17.27 M116.67 36.5 C121.55 28.74, 128.55 25.76, 131.11 19.89 M116.67 36.5 C120.9 32.47, 124.16 27.67, 131.11 19.89" stroke="#868e96" stroke-width="0.5" fill="none"></path><path d="M0 0 C7.9 6.35, 13.26 10.18, 26.83 21.99 M0 0 C9.8 8.25, 20.6 16.53, 26.83 21.99 M26.83 21.99 C20.65 29.31, 13.23 33.13, 0 43.98 M26.83 21.99 C21.38 26.57, 17.03 31.46, 0 43.98 M0 43.98 C27 43.04, 53.82 42.32, 107.33 43.98 M0 43.98 C38.45 42.55, 77.7 42.39, 107.33 43.98 M107.33 43.98 C115.11 37.43, 121.37 33.03, 134.17 21.99 M107.33 43.98 C117.52 35.92, 127.47 29.34, 134.17 21.99 M134.17 21.99 C128.27 14.96, 120.64 8.99, 107.33 0 M134.17 21.99 C128.03 16.84, 122.41 12.71, 107.33 0 M107.33 0 C78.66 0.75, 50.98 0.61, 0 0 M107.33 0 C83.62 0.26, 61.66 0.94, 0 0 M0 0 C0 0, 0 0, 0 0 M0 0 C0 0, 0 0, 0 0" stroke="#000000" stroke-width="1" fill="none"></path></g></g><mask></mask><g transform="translate(551.5183058665718 123.84530643482816) rotate(359.3264660655384 36.55341339111328 11.825227436807296)"><text x="0" y="16.574238775429112" font-family="Virgil, Segoe UI Emoji" font-size="18.920363898891683px" fill="#1e1e1e" text-anchor="start" style="white-space: pre;" direction="ltr" dominant-baseline="alphabetic">package</text></g><g stroke-linecap="round"><g transform="translate(624.7904617616571 114.72958115308091) rotate(359.3264660655384 67.0827599418102 21.988833001431004)" fill-rule="evenodd"><path d="M0 0 C0 0, 0 0, 0 0 M0 0 C0 0, 0 0, 0 0 M3.02 2.62 C3.39 2.09, 4.04 1.9, 4.99 0.36 M3.02 2.62 C3.4 2.02, 4.11 1.4, 4.99 0.36 M6.04 5.25 C7.24 3.52, 8.69 2.5, 10.63 -0.03 M6.04 5.25 C7.46 3.59, 9.07 2.13, 10.63 -0.03 M9.06 7.87 C10.52 5.3, 12.44 4.58, 15.62 0.33 M9.06 7.87 C10.88 5.14, 13.15 2.4, 15.62 0.33 M12.08 10.5 C14.33 6.37, 17.73 2.76, 21.26 -0.07 M12.08 10.5 C13.87 7.52, 17.18 5.41, 21.26 -0.07 M15.75 12.37 C16.42 8.68, 19.68 6.06, 26.25 0.29 M15.75 12.37 C17.98 8.57, 21.33 4.9, 26.25 0.29 M18.77 14.99 C23.29 10.51, 24.9 7.44, 31.89 -0.1 M18.77 14.99 C21.34 11.49, 25.25 7.58, 31.89 -0.1 M21.79 17.61 C27.22 11.87, 32.42 7.03, 36.88 0.26 M21.79 17.61 C28.49 12.04, 33.48 5.18, 36.88 0.26 M3.81 44.39 C6.47 42.86, 7.72 38.63, 13.65 33.07 M3.81 44.39 C6.79 40.29, 10.73 36.27, 13.65 33.07 M24.81 20.24 C30.94 11.05, 39.18 6.65, 42.52 -0.14 M24.81 20.24 C29.87 15.21, 33.99 9.43, 42.52 -0.14 M9.46 44 C22.54 29.96, 37.16 12.57, 47.51 0.22 M9.46 44 C19.89 33.86, 29.6 21.93, 47.51 0.22 M14.44 44.36 C27.11 27.07, 42.21 12.94, 53.15 -0.17 M14.44 44.36 C23.87 33.86, 31.84 25.65, 53.15 -0.17 M20.09 43.96 C32.98 28.03, 48.67 7.8, 58.14 0.19 M20.09 43.96 C29.67 34.12, 39.05 22.63, 58.14 0.19 M25.07 44.32 C36.72 32.86, 44.65 21.74, 63.78 -0.21 M25.07 44.32 C33.06 34.07, 42.81 24.71, 63.78 -0.21 M30.72 43.93 C42.71 27.03, 57.91 12.07, 68.77 0.15 M30.72 43.93 C42.78 29.54, 56.29 15.41, 68.77 0.15 M35.7 44.29 C49.77 29.08, 63.38 14.62, 74.41 -0.24 M35.7 44.29 C49.54 28.9, 63.41 12.76, 74.41 -0.24 M41.35 43.89 C51.74 34.28, 61.55 22.72, 79.4 0.12 M41.35 43.89 C57.02 27.49, 70.64 9.83, 79.4 0.12 M46.33 44.25 C56.46 32.17, 68.86 19.83, 85.04 -0.28 M46.33 44.25 C60.19 28.1, 76.19 10.07, 85.04 -0.28 M51.98 43.86 C66.18 26.67, 82.31 8.62, 90.03 0.08 M51.98 43.86 C60.63 33.81, 68.25 25.62, 90.03 0.08 M56.96 44.22 C69.44 28.19, 82.06 12.53, 95.67 -0.31 M56.96 44.22 C68.25 30.12, 82.11 15.94, 95.67 -0.31 M62.61 43.82 C73.44 32.47, 82.46 20.57, 100.66 0.05 M62.61 43.82 C71.81 34.29, 78.44 23.86, 100.66 0.05 M67.59 44.18 C79.5 29.09, 91.14 14.61, 106.3 -0.34 M67.59 44.18 C78.72 32.13, 88.11 19.62, 106.3 -0.34 M73.24 43.79 C85.7 29.77, 99 11.75, 109.32 2.28 M73.24 43.79 C86.11 28.09, 100.36 11.08, 109.32 2.28 M78.22 44.15 C89.79 30.89, 103.38 11.98, 112.99 4.15 M78.22 44.15 C87.95 33.02, 97.95 21.48, 112.99 4.15 M83.87 43.75 C91.29 33.27, 104.57 21.15, 116.01 6.77 M83.87 43.75 C92.24 32.46, 102.78 23.54, 116.01 6.77 M88.85 44.11 C95.71 34.92, 106.94 24.66, 119.03 9.4 M88.85 44.11 C95 37.53, 101.19 30.92, 119.03 9.4 M94.5 43.72 C102.3 37.35, 110.95 28.74, 122.05 12.02 M94.5 43.72 C101.24 34.04, 108.99 26.4, 122.05 12.02 M99.48 44.08 C108.35 33.65, 114.54 24.66, 125.07 14.65 M99.48 44.08 C105.14 36.98, 111 29.3, 125.07 14.65 M104.47 44.44 C107.67 40.28, 116.02 34.52, 128.09 17.27 M104.47 44.44 C112.14 35.24, 119.61 27.54, 128.09 17.27 M116.67 36.5 C120.53 31.44, 128.41 26.22, 131.11 19.89 M116.67 36.5 C120.72 31.91, 123.15 29.36, 131.11 19.89" stroke="#868e96" stroke-width="0.5" fill="none"></path><path d="M0 0 C7.9 6.98, 17.62 13.34, 26.83 21.99 M0 0 C6.17 6.42, 14.42 10.49, 26.83 21.99 M26.83 21.99 C17.48 30.32, 9.94 38.55, 0 43.98 M26.83 21.99 C17.09 28.85, 8.49 36.84, 0 43.98 M0 43.98 C34.8 41.58, 70.74 41.9, 107.33 43.98 M0 43.98 C23.58 43.13, 45.2 43.05, 107.33 43.98 M107.33 43.98 C115.6 38.65, 120.13 33.59, 134.17 21.99 M107.33 43.98 C112.1 39.48, 117.95 35.35, 134.17 21.99 M134.17 21.99 C126.57 17.38, 122.68 11.6, 107.33 0 M134.17 21.99 C123.35 13.8, 114.61 5.89, 107.33 0 M107.33 0 C77.45 -1.88, 48.19 -0.72, 0 0 M107.33 0 C85.5 0.38, 62.45 0.02, 0 0 M0 0 C0 0, 0 0, 0 0 M0 0 C0 0, 0 0, 0 0" stroke="#000000" stroke-width="1" fill="none"></path></g></g><mask></mask><g transform="translate(667.1234342093983 124.77593136658481) rotate(359.3264660655384 25.2960205078125 11.825227436807296)"><text x="0" y="16.574238775429112" font-family="Virgil, Segoe UI Emoji" font-size="18.920363898891683px" fill="#1e1e1e" text-anchor="start" style="white-space: pre;" direction="ltr" dominant-baseline="alphabetic">verify</text></g><g stroke-linecap="round"><g transform="translate(731.9867958907939 114.0237787788434) rotate(359.3264660655384 67.0827599418102 21.988833001431033)" fill-rule="evenodd"><path d="M0 0 C0 0, 0 0, 0 0 M0 0 C0 0, 0 0, 0 0 M3.02 2.62 C3.71 1.69, 4.05 1.29, 4.99 0.36 M3.02 2.62 C3.55 1.84, 4.12 1.28, 4.99 0.36 M6.04 5.25 C7.84 3.07, 9.31 1.65, 10.63 -0.03 M6.04 5.25 C7.98 3.18, 9.23 1.61, 10.63 -0.03 M9.06 7.87 C11.87 4.86, 13.16 3.3, 15.62 0.33 M9.06 7.87 C12.18 4.64, 13.9 1.75, 15.62 0.33 M12.08 10.5 C14.63 8.21, 16.62 4, 21.26 -0.07 M12.08 10.5 C15.56 7.42, 18.46 2.91, 21.26 -0.07 M15.75 12.37 C17.64 9.62, 23.57 4.72, 26.25 0.29 M15.75 12.37 C20.22 8.06, 24.27 2.24, 26.25 0.29 M18.77 14.99 C22.25 11.25, 25.93 8.11, 31.89 -0.1 M18.77 14.99 C22.42 12.75, 24.95 8.53, 31.89 -0.1 M21.79 17.61 C25.75 9.76, 34 4.5, 36.88 0.26 M21.79 17.61 C25.67 11.99, 30.22 6.5, 36.88 0.26 M3.81 44.39 C7.04 39.73, 9.45 35.26, 13.65 33.07 M3.81 44.39 C8.17 40.78, 11.91 36.09, 13.65 33.07 M24.81 20.24 C29.36 14.62, 36.81 6.75, 42.52 -0.14 M24.81 20.24 C31.23 14.09, 37.7 5.43, 42.52 -0.14 M9.46 44 C18.75 30.88, 32.13 18.79, 47.51 0.22 M9.46 44 C25.41 26.85, 40.04 9.37, 47.51 0.22 M14.44 44.36 C28.89 26.98, 42.48 9.7, 53.15 -0.17 M14.44 44.36 C28.25 28.93, 41.06 14.43, 53.15 -0.17 M20.09 43.96 C28.41 35.9, 34.09 27.39, 58.14 0.19 M20.09 43.96 C31.83 30.62, 43.76 18.28, 58.14 0.19 M25.07 44.32 C39.03 29.05, 51.04 15.18, 63.78 -0.21 M25.07 44.32 C36.18 33.26, 46.33 20.72, 63.78 -0.21 M30.72 43.93 C45.92 28.12, 59.94 10.63, 68.77 0.15 M30.72 43.93 C46.36 27.51, 59.56 9.94, 68.77 0.15 M35.7 44.29 C49.86 28.2, 62.86 13.21, 74.41 -0.24 M35.7 44.29 C48.28 30.03, 61.66 14.99, 74.41 -0.24 M41.35 43.89 C54.63 27.08, 68.24 10.02, 79.4 0.12 M41.35 43.89 C51.89 32.67, 61.13 19.84, 79.4 0.12 M46.33 44.25 C55.35 34.59, 63.74 25.53, 85.04 -0.28 M46.33 44.25 C54.21 33.9, 63.2 23.54, 85.04 -0.28 M51.98 43.86 C63.59 27.16, 78.58 10.73, 90.03 0.08 M51.98 43.86 C67.48 27.19, 82.95 9.62, 90.03 0.08 M56.96 44.22 C71.56 29.02, 85.45 13.35, 95.67 -0.31 M56.96 44.22 C70.4 28.24, 85.49 12.4, 95.67 -0.31 M62.61 43.82 C78.5 28.29, 92.09 7.41, 100.66 0.05 M62.61 43.82 C75.83 29.41, 89.3 13.32, 100.66 0.05 M67.59 44.18 C81.56 26.93, 96.49 11.68, 106.3 -0.34 M67.59 44.18 C76.06 34.28, 85.29 22.74, 106.3 -0.34 M73.24 43.79 C79.89 33.51, 89.56 26.91, 109.32 2.28 M73.24 43.79 C86.94 29.18, 100.13 14.27, 109.32 2.28 M78.22 44.15 C89.9 29.69, 105.21 11.98, 112.99 4.15 M78.22 44.15 C91.7 29.3, 104.28 14.64, 112.99 4.15 M83.87 43.75 C92.62 36.35, 99.73 27.13, 116.01 6.77 M83.87 43.75 C95.95 29.83, 108.14 15.43, 116.01 6.77 M88.85 44.11 C96.28 34.73, 107.57 22.18, 119.03 9.4 M88.85 44.11 C95.69 35.35, 103.39 26.95, 119.03 9.4 M94.5 43.72 C103.4 34.22, 110.66 23.47, 122.05 12.02 M94.5 43.72 C105.03 31.31, 115.7 19.17, 122.05 12.02 M99.48 44.08 C109.27 32.83, 120.54 21.9, 125.07 14.65 M99.48 44.08 C107.98 33.67, 119.22 22.62, 125.07 14.65 M104.47 44.44 C114.09 31.93, 123.14 24.64, 128.09 17.27 M104.47 44.44 C112.45 35.36, 119.38 27.94, 128.09 17.27 M116.67 36.5 C121.48 32.49, 122.82 25.79, 131.11 19.89 M116.67 36.5 C122.7 30.07, 126.93 23.09, 131.11 19.89" stroke="#868e96" stroke-width="0.5" fill="none"></path><path d="M0 0 C6.79 6.59, 13.92 9.43, 26.83 21.99 M0 0 C7.96 5.92, 13.89 11.95, 26.83 21.99 M26.83 21.99 C19.22 25.92, 15.09 32.38, 0 43.98 M26.83 21.99 C15.95 29.98, 6.57 38.74, 0 43.98 M0 43.98 C34.67 44.67, 72.16 45.79, 107.33 43.98 M0 43.98 C35.77 42.99, 71.49 43.08, 107.33 43.98 M107.33 43.98 C116.81 37.5, 126.12 29.66, 134.17 21.99 M107.33 43.98 C114.58 39.19, 121.54 33.38, 134.17 21.99 M134.17 21.99 C125.32 14.44, 112.5 4.65, 107.33 0 M134.17 21.99 C125.84 15.92, 118.65 9.83, 107.33 0 M107.33 0 C64.99 0.57, 26.88 -1.69, 0 0 M107.33 0 C64.11 1.29, 21.64 1.02, 0 0 M0 0 C0 0, 0 0, 0 0 M0 0 C0 0, 0 0, 0 0" stroke="#000000" stroke-width="1" fill="none"></path></g></g><mask></mask><g transform="translate(773.0193434735156 124.92827793176411) rotate(359.3264660655384 28.256996154785156 11.825227436807296)"><text x="0" y="16.574238775429112" font-family="Virgil, Segoe UI Emoji" font-size="18.920363898891683px" fill="#1e1e1e" text-anchor="start" style="white-space: pre;" direction="ltr" dominant-baseline="alphabetic">install</text></g><g stroke-linecap="round"><g transform="translate(839.762505167472 112.62979842691436) rotate(359.3264660655384 67.0827599418102 21.988833001431033)" fill-rule="evenodd"><path d="M0 0 C0 0, 0 0, 0 0 M0 0 C0 0, 0 0, 0 0 M3.02 2.62 C3.45 1.63, 4.37 0.95, 4.99 0.36 M3.02 2.62 C3.38 2.02, 3.81 1.64, 4.99 0.36 M6.04 5.25 C7.53 3.64, 9.73 1.7, 10.63 -0.03 M6.04 5.25 C7.36 3.08, 9.34 1.57, 10.63 -0.03 M9.06 7.87 C9.68 7.24, 11.17 5.62, 15.62 0.33 M9.06 7.87 C10.98 6.27, 12.74 4.24, 15.62 0.33 M12.08 10.5 C16.26 6.17, 19.29 2.27, 21.26 -0.07 M12.08 10.5 C14.57 7.5, 16.75 5.85, 21.26 -0.07 M15.75 12.37 C19.51 8.34, 20.75 5.93, 26.25 0.29 M15.75 12.37 C18.88 8.42, 22.8 3.83, 26.25 0.29 M18.77 14.99 C22.75 9.26, 26.95 4.26, 31.89 -0.1 M18.77 14.99 C23.08 10.26, 26.92 6.29, 31.89 -0.1 M21.79 17.61 C25.2 10.37, 31.47 8.73, 36.88 0.26 M21.79 17.61 C25.73 12.91, 29.2 7.92, 36.88 0.26 M3.81 44.39 C8.45 41.25, 10.45 36.35, 13.65 33.07 M3.81 44.39 C7.85 40.46, 11.45 35.23, 13.65 33.07 M24.81 20.24 C28.18 16.56, 32.44 9.37, 42.52 -0.14 M24.81 20.24 C28.59 16.09, 33.79 10.93, 42.52 -0.14 M9.46 44 C23.3 31.02, 31.95 17.66, 47.51 0.22 M9.46 44 C22.87 26.91, 38.82 10.98, 47.51 0.22 M14.44 44.36 C21.08 34.79, 28.77 24.34, 53.15 -0.17 M14.44 44.36 C26.9 28.79, 40.8 14.08, 53.15 -0.17 M20.09 43.96 C33.99 28.43, 44.36 15.3, 58.14 0.19 M20.09 43.96 C31.01 31.48, 42.19 16.8, 58.14 0.19 M25.07 44.32 C40.4 27.93, 53.16 11.24, 63.78 -0.21 M25.07 44.32 C35.35 31.66, 46.02 20.68, 63.78 -0.21 M30.72 43.93 C42.24 29.83, 51.83 19.84, 68.77 0.15 M30.72 43.93 C39.44 33.11, 49.27 21.09, 68.77 0.15 M35.7 44.29 C47.36 31.16, 55.96 20.39, 74.41 -0.24 M35.7 44.29 C43.58 34.79, 52.07 24.98, 74.41 -0.24 M41.35 43.89 C52.3 31.47, 63.6 16.58, 79.4 0.12 M41.35 43.89 C55.52 26.65, 69.88 12.3, 79.4 0.12 M46.33 44.25 C62.89 27.91, 77.94 11.33, 85.04 -0.28 M46.33 44.25 C59.96 27.22, 75.9 10.82, 85.04 -0.28 M51.98 43.86 C59.37 35.67, 68.89 25.18, 90.03 0.08 M51.98 43.86 C64.74 28.17, 79.13 13.33, 90.03 0.08 M56.96 44.22 C72.34 26.86, 85.91 11.5, 95.67 -0.31 M56.96 44.22 C69.41 31.1, 80.27 18.01, 95.67 -0.31 M62.61 43.82 C72.22 35.05, 82.45 21.6, 100.66 0.05 M62.61 43.82 C72.9 30.17, 86.06 17.63, 100.66 0.05 M67.59 44.18 C75.78 32.76, 85.66 22.62, 106.3 -0.34 M67.59 44.18 C81.57 27.77, 95.92 11.17, 106.3 -0.34 M73.24 43.79 C86.72 29.11, 98.48 13.74, 109.32 2.28 M73.24 43.79 C82.57 32.54, 94.36 20.41, 109.32 2.28 M78.22 44.15 C92.01 28.81, 104.21 11.85, 112.99 4.15 M78.22 44.15 C88.3 32.3, 99.85 18.98, 112.99 4.15 M83.87 43.75 C93.64 33.5, 104.27 20.64, 116.01 6.77 M83.87 43.75 C95.75 29.48, 107.62 16.75, 116.01 6.77 M88.85 44.11 C99.17 33.51, 108.97 21.57, 119.03 9.4 M88.85 44.11 C98.02 33.4, 105.92 24.21, 119.03 9.4 M94.5 43.72 C104.22 32.8, 113.96 20.79, 122.05 12.02 M94.5 43.72 C105.12 31.69, 116.15 19.23, 122.05 12.02 M99.48 44.08 C103.68 37.69, 110.48 27.92, 125.07 14.65 M99.48 44.08 C109.02 34.44, 116.12 23.09, 125.07 14.65 M104.47 44.44 C111.56 37.53, 113.63 31.63, 128.09 17.27 M104.47 44.44 C113.92 34.74, 120.9 24.19, 128.09 17.27 M116.67 36.5 C122.31 31.48, 127.46 25.13, 131.11 19.89 M116.67 36.5 C119.46 32.77, 123.66 27.88, 131.11 19.89" stroke="#868e96" stroke-width="0.5" fill="none"></path><path d="M0 0 C10.04 5.17, 18.51 15.42, 26.83 21.99 M0 0 C8.44 7.45, 18.21 15.47, 26.83 21.99 M26.83 21.99 C21.27 28.41, 15.92 34.58, 0 43.98 M26.83 21.99 C20.43 27.17, 16.1 30.75, 0 43.98 M0 43.98 C37.67 44.63, 78.94 43.86, 107.33 43.98 M0 43.98 C42.17 42.61, 84.61 42.89, 107.33 43.98 M107.33 43.98 C113.48 38.71, 119.38 35.7, 134.17 21.99 M107.33 43.98 C113.94 39.04, 122.21 32.36, 134.17 21.99 M134.17 21.99 C124.91 14.48, 112.19 5.55, 107.33 0 M134.17 21.99 C128.77 18.31, 121.97 12.39, 107.33 0 M107.33 0 C74.31 1.23, 44.49 2.62, 0 0 M107.33 0 C71.12 -0.03, 35.99 0.84, 0 0 M0 0 C0 0, 0 0, 0 0 M0 0 C0 0, 0 0, 0 0" stroke="#000000" stroke-width="1" fill="none"></path></g></g><mask></mask><g transform="translate(883.7535833785523 124.85166702895884) rotate(359.3264660655384 27.386680603027344 11.825227436807296)"><text x="0" y="16.574238775429112" font-family="Virgil, Segoe UI Emoji" font-size="18.920363898891683px" fill="#1e1e1e" text-anchor="start" style="white-space: pre;" direction="ltr" dominant-baseline="alphabetic">deploy</text></g><g transform="translate(37.8359375 120.74609375) rotate(0 51.757972717285156 17.5)"><text x="0" y="24.528" font-family="Virgil, Segoe UI Emoji" font-size="28px" fill="#1e1e1e" text-anchor="start" style="white-space: pre;" direction="ltr" dominant-baseline="alphabetic">Phases:</text></g><g transform="translate(442.6328125 10) rotate(0 121.12794494628906 17.5)"><text x="0" y="24.528" font-family="Virgil, Segoe UI Emoji" font-size="28px" fill="#1e1e1e" text-anchor="start" style="white-space: pre;" direction="ltr" dominant-baseline="alphabetic">Default LifeCycle</text></g><g transform="translate(10 251.265625) rotate(0 84.65795135498047 17.5)"><text x="0" y="24.528" font-family="Virgil, Segoe UI Emoji" font-size="28px" fill="#1e1e1e" text-anchor="start" style="white-space: pre;" direction="ltr" dominant-baseline="alphabetic">Buildin Goal:</text></g><g stroke-linecap="round" transform="translate(277.2924008620903 239.84658900395902) rotate(0 47.5 35.5)"><path d="M8.25 16.45 C8.25 16.45, 8.25 16.45, 8.25 16.45 M8.25 16.45 C8.25 16.45, 8.25 16.45, 8.25 16.45 M1.43 30.39 C8.7 25.6, 13.77 16.46, 21.11 7.75 M1.43 30.39 C5.53 25.11, 9.68 19.92, 21.11 7.75 M0.51 37.55 C8.87 27.67, 18.93 18.82, 31.35 2.07 M0.51 37.55 C6.99 30.25, 13.83 22.46, 31.35 2.07 M2.22 41.68 C14.47 29.69, 23.53 15.76, 36.99 1.68 M2.22 41.68 C11.15 30.39, 21.01 19.07, 36.99 1.68 M3.93 45.81 C12.99 33.44, 22.95 22.83, 41.98 2.04 M3.93 45.81 C15.17 31.71, 28.25 19.24, 41.98 2.04 M5.63 49.95 C20.91 32, 37.11 14.52, 47.62 1.64 M5.63 49.95 C19.26 32.77, 33.22 16.66, 47.62 1.64 M6.68 54.83 C19.01 41.16, 30.1 25.05, 53.26 1.25 M6.68 54.83 C21.53 38.13, 37.26 19, 53.26 1.25 M10.36 56.7 C30 33.72, 47.27 13.9, 57.59 2.36 M10.36 56.7 C23.83 40.46, 37.26 25.67, 57.59 2.36 M14.03 58.57 C27.59 40.16, 43.69 22.41, 61.92 3.48 M14.03 58.57 C23.91 46.06, 35.16 33.68, 61.92 3.48 M17.05 61.2 C34.83 40.19, 54.7 17.85, 66.26 4.59 M17.05 61.2 C35.98 40.27, 53.22 19.2, 66.26 4.59 M20.73 63.07 C35.43 46.89, 47.54 31.21, 70.59 5.71 M20.73 63.07 C36.26 44.49, 53.73 26.56, 70.59 5.71 M23.74 65.69 C33.16 54.14, 45.42 39.7, 74.26 7.58 M23.74 65.69 C41.27 46.32, 58.03 26.42, 74.26 7.58 M28.08 66.81 C45.87 50.83, 61.58 29.42, 78.59 8.69 M28.08 66.81 C39.5 55.41, 50.53 41.06, 78.59 8.69 M32.41 67.92 C44.45 55.8, 53.18 41.67, 81.61 11.32 M32.41 67.92 C51.48 46.09, 70.62 25.35, 81.61 11.32 M36.74 69.04 C47.9 59.3, 57.49 45.57, 84.63 13.94 M36.74 69.04 C47.56 55.92, 59.16 42.93, 84.63 13.94 M41.72 69.4 C54.89 56.51, 66.83 39.24, 86.99 17.32 M41.72 69.4 C60.63 49.77, 78.02 28.93, 86.99 17.32 M46.06 70.51 C57.24 55.2, 72.78 40.76, 89.36 20.7 M46.06 70.51 C62.47 51.38, 79.63 30.53, 89.36 20.7 M51.04 70.87 C65.75 56.86, 78.13 41.47, 91.72 24.08 M51.04 70.87 C61.1 59.56, 71.85 47.41, 91.72 24.08 M56.69 70.48 C67.61 58.66, 75.87 48.64, 94.08 27.46 M56.69 70.48 C65.8 60.22, 76.9 48.56, 94.08 27.46 M63.64 68.57 C73.6 60.54, 81.6 48.69, 94.48 33.1 M63.64 68.57 C75.35 55.72, 87.37 42.88, 94.48 33.1 M71.25 65.91 C76.77 57.28, 84.25 50.3, 94.21 39.5 M71.25 65.91 C76.64 58.64, 82.42 53.2, 94.21 39.5" stroke="#228be6" stroke-width="0.5" fill="none"></path><path d="M56.1 1.38 C64.29 1.71, 73.67 4.42, 80.01 8.76 C86.34 13.11, 92 21.05, 94.11 27.46 C96.21 33.87, 95.35 41.26, 92.65 47.25 C89.94 53.24, 84.54 59.36, 77.87 63.4 C71.2 67.44, 61.18 70.92, 52.63 71.5 C44.09 72.07, 34.3 69.76, 26.62 66.86 C18.94 63.97, 11.11 59.49, 6.56 54.13 C2.01 48.77, -1.02 41.03, -0.69 34.69 C-0.35 28.35, 3.47 21.56, 8.56 16.09 C13.66 10.62, 20.01 4.04, 29.89 1.88 C39.76 -0.28, 59.92 1.98, 67.8 3.12 C75.68 4.26, 77.52 8.09, 77.16 8.73 M26.25 4.94 C33.18 1.47, 44.69 -1.25, 53.15 -1 C61.61 -0.76, 70.25 1.98, 76.99 6.4 C83.73 10.82, 90.67 19.21, 93.58 25.51 C96.49 31.81, 96.7 38.36, 94.43 44.2 C92.16 50.03, 86.57 56.33, 79.96 60.53 C73.35 64.73, 63.27 68.11, 54.77 69.42 C46.26 70.73, 36.76 70.78, 28.93 68.4 C21.1 66.02, 12.46 60.32, 7.78 55.12 C3.09 49.92, 1.14 43.29, 0.84 37.2 C0.53 31.11, 1.75 24, 5.95 18.55 C10.16 13.11, 22.54 7, 26.08 4.55 C29.62 2.09, 26.61 3.56, 27.21 3.82" stroke="#000000" stroke-width="1" fill="none"></path></g><g transform="translate(296.7829537557293 255.2442982718366) rotate(0 27.921875 20)"><text x="27.921875" y="14.016" font-family="Virgil, Segoe UI Emoji" font-size="16px" fill="#1e1e1e" text-anchor="middle" style="white-space: pre;" direction="ltr" dominant-baseline="alphabetic">compiler</text><text x="27.921875" y="34.016" font-family="Virgil, Segoe UI Emoji" font-size="16px" fill="#1e1e1e" text-anchor="middle" style="white-space: pre;" direction="ltr" dominant-baseline="alphabetic">:compile</text></g><g stroke-linecap="round" transform="translate(400.7338071120903 239.90693776916623) rotate(0 49.5 35.5)"><path d="M3.69 23.08 C3.69 23.08, 3.69 23.08, 3.69 23.08 M3.69 23.08 C3.69 23.08, 3.69 23.08, 3.69 23.08 M2.77 30.24 C6.32 25.1, 9.27 18.76, 22.46 7.6 M2.77 30.24 C9.71 23.18, 15.78 15.33, 22.46 7.6 M2.51 36.63 C11.73 24.58, 24.11 13.71, 29.41 5.69 M2.51 36.63 C9.28 27.03, 18.25 17.77, 29.41 5.69 M1.59 43.79 C9.2 32.24, 20.51 22.52, 37.02 3.03 M1.59 43.79 C8.32 35.76, 18.07 25.31, 37.02 3.03 M3.96 47.17 C13.18 36.36, 20.32 25.31, 44.63 0.37 M3.96 47.17 C17.93 30.97, 31.21 15.13, 44.63 0.37 M6.32 50.54 C21.65 35.01, 33.17 17, 49.62 0.73 M6.32 50.54 C14.36 41.84, 24.01 30.19, 49.62 0.73 M8.68 53.92 C23.09 38.74, 39.13 20.33, 53.95 1.85 M8.68 53.92 C20.24 40.92, 33.52 26.09, 53.95 1.85 M11.05 57.3 C20.41 45.69, 32.02 33.87, 58.94 2.21 M11.05 57.3 C27.82 39.48, 42.34 21.12, 58.94 2.21 M13.41 60.68 C31.79 39.04, 50.02 22.52, 63.93 2.57 M13.41 60.68 C31.29 41.31, 47.83 21.98, 63.93 2.57 M17.08 62.55 C32.37 46.6, 44.99 30.2, 68.91 2.93 M17.08 62.55 C34.62 44.52, 50.12 23.56, 68.91 2.93 M21.41 63.67 C37.51 42.28, 55.93 22.53, 73.24 4.04 M21.41 63.67 C37.21 46.18, 50.39 29.9, 73.24 4.04 M25.75 64.78 C36.76 51.52, 48.58 34.65, 76.92 5.91 M25.75 64.78 C38.59 50.35, 53.72 33, 76.92 5.91 M29.42 66.65 C50.18 43.23, 70.46 20.92, 79.94 8.54 M29.42 66.65 C45.52 49.13, 60.78 30.55, 79.94 8.54 M33.75 67.76 C43.59 56.11, 55.88 41.38, 82.96 11.16 M33.75 67.76 C48.17 52.17, 60.22 35.64, 82.96 11.16 M38.08 68.88 C55.12 49.29, 75.87 27.33, 86.63 13.03 M38.08 68.88 C50.12 55.19, 61.14 42.79, 86.63 13.03 M43.07 69.24 C55.39 55.75, 69.32 39.5, 89.65 15.66 M43.07 69.24 C54.89 53.87, 68.06 40.1, 89.65 15.66 M48.71 68.85 C57.67 56.86, 70.47 47.93, 92.67 18.28 M48.71 68.85 C58.72 57.11, 69.54 44.89, 92.67 18.28 M54.36 68.45 C63.39 58.65, 70.73 50.39, 94.38 22.41 M54.36 68.45 C62.5 59.74, 70.2 48.68, 94.38 22.41 M60 68.06 C67.15 60.8, 74.47 50.91, 95.43 27.3 M60 68.06 C68.51 58.49, 75.65 49.3, 95.43 27.3 M65.64 67.66 C70.83 59.28, 79.05 49.62, 97.13 31.44 M65.64 67.66 C78.28 54.46, 89.22 39.78, 97.13 31.44 M72.6 65.76 C80.15 55.66, 90.78 47.34, 98.18 36.32 M72.6 65.76 C80.3 57.58, 87.09 47.97, 98.18 36.32 M81.52 61.59 C83.96 58.52, 89.25 52.47, 94.64 46.5 M81.52 61.59 C84.58 58.07, 87.78 55.35, 94.64 46.5" stroke="#228be6" stroke-width="0.5" fill="none"></path><path d="M72.41 3.07 C80.07 5.42, 87.94 11.58, 92.28 17.31 C96.62 23.04, 98.7 30.99, 98.43 37.43 C98.16 43.87, 95.91 50.92, 90.66 55.97 C85.41 61.03, 75.34 65.49, 66.93 67.74 C58.51 69.99, 48.85 70.45, 40.16 69.48 C31.46 68.5, 21.2 66.2, 14.76 61.88 C8.32 57.57, 3.33 50.07, 1.51 43.58 C-0.32 37.1, 0.72 28.86, 3.79 22.97 C6.86 17.09, 13.22 12.05, 19.93 8.26 C26.64 4.46, 34.89 0.63, 44.05 0.21 C53.21 -0.22, 69.25 4.33, 74.9 5.71 C80.55 7.1, 78.36 8.13, 77.96 8.49 M29.22 2.17 C36.32 -1.15, 46 -1.14, 54.62 -0.27 C63.24 0.61, 73.93 3.28, 80.96 7.42 C87.99 11.57, 94.2 18.18, 96.8 24.58 C99.4 30.98, 98.81 39.53, 96.55 45.82 C94.29 52.1, 89.96 58.12, 83.23 62.28 C76.51 66.44, 65.27 69.65, 56.22 70.76 C47.16 71.87, 36.96 71.67, 28.92 68.96 C20.87 66.25, 12.68 59.95, 7.95 54.48 C3.21 49, 0.85 42.58, 0.5 36.13 C0.14 29.67, 1.31 21.13, 5.83 15.75 C10.34 10.37, 23.7 5.7, 27.6 3.86 C31.49 2.01, 28.73 4.44, 29.2 4.7" stroke="#000000" stroke-width="1" fill="none"></path></g><g transform="translate(420.5757714433562 255.30464703704382) rotate(0 29.65625 20)"><text x="29.65625" y="14.016" font-family="Virgil, Segoe UI Emoji" font-size="16px" fill="#1e1e1e" text-anchor="middle" style="white-space: pre;" direction="ltr" dominant-baseline="alphabetic">surefire</text><text x="29.65625" y="34.016" font-family="Virgil, Segoe UI Emoji" font-size="16px" fill="#1e1e1e" text-anchor="middle" style="white-space: pre;" direction="ltr" dominant-baseline="alphabetic">:test</text></g><g stroke-linecap="round" transform="translate(535.8822446120903 237.50876687559804) rotate(0 37.5 35.5)"><path d="M10.26 10.24 C10.26 10.24, 10.26 10.24, 10.26 10.24 M10.26 10.24 C10.26 10.24, 10.26 10.24, 10.26 10.24 M5.41 21.92 C8.73 17.88, 13.66 10.96, 19.18 6.08 M5.41 21.92 C7.25 18.24, 10.84 14.31, 19.18 6.08 M1.86 32.1 C10.13 22.13, 18.4 13.78, 28.11 1.91 M1.86 32.1 C11.02 20.72, 21.6 10.65, 28.11 1.91 M2.91 36.98 C13.06 22.18, 26.22 8.06, 33.75 1.51 M2.91 36.98 C9.06 28.24, 16.11 21.42, 33.75 1.51 M3.31 42.63 C10.03 34.23, 20.14 23.8, 38.74 1.87 M3.31 42.63 C12.36 32.36, 22.93 21.19, 38.74 1.87 M4.36 47.52 C17.93 32.81, 26.15 22.51, 43.72 2.23 M4.36 47.52 C18.2 32.49, 31.74 16.55, 43.72 2.23 M4.75 53.16 C21 32.04, 38.48 14.19, 48.71 2.59 M4.75 53.16 C21.53 34.65, 37.87 17.39, 48.71 2.59 M7.77 55.78 C21.51 43.4, 35.75 27.98, 53.7 2.95 M7.77 55.78 C21.46 39.41, 37.09 21.98, 53.7 2.95 M10.79 58.41 C26.16 41.32, 40.04 23.7, 56.72 5.58 M10.79 58.41 C27.5 39.02, 44.15 18.96, 56.72 5.58 M13.81 61.03 C26.47 48.9, 38.1 33.48, 59.08 8.96 M13.81 61.03 C24.94 48.33, 36.83 35.39, 59.08 8.96 M16.83 63.66 C32.42 47.74, 45.04 29.07, 62.1 11.58 M16.83 63.66 C34.25 43.71, 51.55 22.55, 62.1 11.58 M19.85 66.28 C32.3 51.55, 45.65 33.28, 65.12 14.2 M19.85 66.28 C33.86 50.26, 46.57 35.03, 65.12 14.2 M24.18 67.39 C40.08 45.28, 58.58 28.46, 68.14 16.83 M24.18 67.39 C34.15 54.54, 46.23 42.31, 68.14 16.83 M28.51 68.51 C43.48 53.86, 53.1 38.17, 70.5 20.21 M28.51 68.51 C44.73 49.59, 60.77 31.16, 70.5 20.21 M33.5 68.87 C45.09 54.78, 57.3 41.84, 71.55 25.1 M33.5 68.87 C41.56 58.03, 49.8 49.08, 71.55 25.1 M37.83 69.98 C52.16 53.56, 61.65 42.07, 73.26 29.23 M37.83 69.98 C49.66 57.61, 60.07 44.97, 73.26 29.23 M42.82 70.34 C51.1 59.32, 57.9 51.24, 74.31 34.12 M42.82 70.34 C51.22 60.94, 58.96 51, 74.31 34.12 M49.11 69.2 C53.81 64.22, 59.63 56.68, 75.36 39.01 M49.11 69.2 C55.96 61.52, 61.46 55.88, 75.36 39.01 M60.01 62.76 C63.16 59.13, 66.28 54.47, 71.82 49.18 M60.01 62.76 C64.07 57.02, 68.09 52.46, 71.82 49.18" stroke="#228be6" stroke-width="0.5" fill="none"></path><path d="M52.97 2.72 C59.48 5.15, 66.51 12.22, 70.24 18.55 C73.97 24.88, 76.09 33.99, 75.35 40.69 C74.61 47.39, 70.71 53.69, 65.77 58.74 C60.84 63.8, 53.1 69.61, 45.75 71.02 C38.4 72.44, 28.47 70.28, 21.67 67.23 C14.86 64.18, 8.31 58.62, 4.9 52.72 C1.49 46.82, 0.35 38.88, 1.21 31.84 C2.07 24.79, 5.15 15.67, 10.08 10.46 C15 5.24, 22.23 0.87, 30.78 0.57 C39.33 0.27, 55.47 6.19, 61.38 8.64 C67.28 11.09, 66.8 14.8, 66.22 15.29 M29.52 1.96 C36.23 0.24, 45.39 1.24, 52.45 4.08 C59.51 6.93, 68.04 13.25, 71.88 19.02 C75.71 24.8, 76.86 32.1, 75.47 38.73 C74.07 45.36, 68.9 53.71, 63.5 58.79 C58.09 63.87, 50.02 67.75, 43.04 69.21 C36.05 70.66, 28.14 70.05, 21.59 67.49 C15.03 64.94, 7.18 59.78, 3.7 53.87 C0.22 47.96, -0.32 38.91, 0.7 32.03 C1.71 25.16, 4.99 18.08, 9.79 12.62 C14.59 7.15, 25.82 1.15, 29.51 -0.75 C33.2 -2.64, 31.39 0.24, 31.92 1.24" stroke="#000000" stroke-width="1" fill="none"></path></g><g transform="translate(558.9282403175947 252.90647614347563) rotate(0 14.4375 20)"><text x="14.4375" y="14.016" font-family="Virgil, Segoe UI Emoji" font-size="16px" fill="#1e1e1e" text-anchor="middle" style="white-space: pre;" direction="ltr" dominant-baseline="alphabetic">jar</text><text x="14.4375" y="34.016" font-family="Virgil, Segoe UI Emoji" font-size="16px" fill="#1e1e1e" text-anchor="middle" style="white-space: pre;" direction="ltr" dominant-baseline="alphabetic">:jar</text></g><g stroke-linecap="round" transform="translate(722.4525571120903 241.57632348142045) rotate(0 44.5 35.5)"><path d="M8.68 15.5 C8.68 15.5, 8.68 15.5, 8.68 15.5 M8.68 15.5 C8.68 15.5, 8.68 15.5, 8.68 15.5 M2.52 28.69 C7.25 20.83, 14.34 12.86, 21.54 6.8 M2.52 28.69 C6.66 23.59, 9.83 20.84, 21.54 6.8 M1.6 35.84 C10.95 25.42, 18.99 16.51, 29.81 3.39 M1.6 35.84 C8.89 27.55, 17.5 16.93, 29.81 3.39 M2.65 40.73 C11.77 28.74, 23.49 16.99, 35.45 3 M2.65 40.73 C11.25 30.37, 22.33 18.09, 35.45 3 M3.7 45.62 C15.41 34.21, 26.88 19.51, 41.1 2.6 M3.7 45.62 C13.72 35.59, 21.94 24.37, 41.1 2.6 M5.41 49.75 C22.78 32.9, 37.72 11.25, 46.74 2.21 M5.41 49.75 C17.73 35.41, 29.68 20.74, 46.74 2.21 M7.12 53.89 C25.24 35.34, 42.3 14.1, 53.04 1.06 M7.12 53.89 C25.1 32.54, 43.43 13.27, 53.04 1.06 M10.13 56.51 C23.38 40.03, 38.17 23.95, 56.72 2.93 M10.13 56.51 C27.68 36.01, 44.37 17.33, 56.72 2.93 M13.15 59.13 C24.5 43.95, 36.8 32.05, 61.05 4.04 M13.15 59.13 C27.13 42.36, 41.23 26.11, 61.05 4.04 M16.17 61.76 C28.74 47.9, 41.34 32.42, 65.38 5.16 M16.17 61.76 C34.06 42.19, 50.4 22.71, 65.38 5.16 M19.19 64.38 C32.43 49.05, 45.7 34.25, 69.05 7.03 M19.19 64.38 C31.93 50.24, 42.77 35.58, 69.05 7.03 M22.21 67.01 C35.87 52.94, 49.77 37.79, 73.38 8.14 M22.21 67.01 C36.19 50.06, 51.52 32.96, 73.38 8.14 M26.54 68.12 C42.97 53.09, 55.62 33.48, 76.4 10.76 M26.54 68.12 C40.69 52.53, 53.59 36.34, 76.4 10.76 M31.53 68.48 C46.89 49.9, 64.53 29.97, 78.76 14.14 M31.53 68.48 C49.23 47.23, 66.78 27.61, 78.76 14.14 M35.86 69.6 C53.86 52.89, 66.58 34.57, 81.13 17.52 M35.86 69.6 C48.59 55, 59.34 41.48, 81.13 17.52 M40.85 69.96 C55.73 52.78, 66.87 39.11, 83.49 20.9 M40.85 69.96 C58.16 50.52, 74.17 30.74, 83.49 20.9 M45.83 70.32 C54.93 56.95, 69.74 43.95, 85.85 24.28 M45.83 70.32 C56.97 56.98, 68.89 43.12, 85.85 24.28 M50.16 71.43 C61.36 60.06, 68.3 48.75, 87.56 28.41 M50.16 71.43 C58.68 60.86, 68.16 49.82, 87.56 28.41 M57.78 68.77 C63.85 61.83, 69.76 56.48, 87.3 34.81 M57.78 68.77 C64.88 60.48, 72.4 51.74, 87.3 34.81 M65.39 66.11 C73.99 57.34, 80.99 48.09, 87.69 40.45 M65.39 66.11 C71.37 59.61, 75.22 55.6, 87.69 40.45 M73.65 62.7 C79.44 58.93, 82.66 52.09, 88.09 46.1 M73.65 62.7 C77.26 59.15, 79.68 56.37, 88.09 46.1" stroke="#228be6" stroke-width="0.5" fill="none"></path><path d="M51.68 0.89 C59.42 1.29, 69.5 4.26, 75.4 8.63 C81.3 13, 85.04 20.76, 87.07 27.1 C89.1 33.44, 89.92 40.75, 87.6 46.69 C85.27 52.64, 79.45 58.81, 73.14 62.76 C66.84 66.72, 58.01 69.56, 49.77 70.44 C41.53 71.31, 31.04 71, 23.7 68.03 C16.35 65.06, 9.6 58.38, 5.7 52.62 C1.81 46.86, -0.18 39.67, 0.33 33.46 C0.85 27.25, 4.18 20.52, 8.79 15.38 C13.41 10.23, 19.66 4.99, 28.03 2.61 C36.4 0.23, 52.87 0.66, 59.03 1.1 C65.18 1.53, 65.04 4.65, 64.97 5.22 M57.6 0.59 C65.07 1.92, 73.65 8.04, 78.6 13.3 C83.55 18.57, 86.31 25.87, 87.3 32.18 C88.29 38.49, 87.86 45.8, 84.56 51.17 C81.26 56.54, 74.3 60.89, 67.52 64.41 C60.74 67.94, 51.91 72.29, 43.89 72.33 C35.87 72.37, 26.05 68.53, 19.41 64.65 C12.77 60.78, 6.99 54.99, 4.06 49.08 C1.14 43.17, 0.56 35.21, 1.88 29.19 C3.19 23.17, 6.88 17.6, 11.96 12.97 C17.04 8.35, 24.7 3.12, 32.36 1.43 C40.02 -0.27, 53.9 2.61, 57.91 2.81 C61.93 3, 56.73 2.03, 56.46 2.59" stroke="#000000" stroke-width="1" fill="none"></path></g><g transform="translate(740.8144303492888 256.97403274929803) rotate(0 26.171875 20)"><text x="26.171875" y="14.016" font-family="Virgil, Segoe UI Emoji" font-size="16px" fill="#1e1e1e" text-anchor="middle" style="white-space: pre;" direction="ltr" dominant-baseline="alphabetic">install</text><text x="26.171875" y="34.016" font-family="Virgil, Segoe UI Emoji" font-size="16px" fill="#1e1e1e" text-anchor="middle" style="white-space: pre;" direction="ltr" dominant-baseline="alphabetic">:install</text></g><g stroke-linecap="round" transform="translate(845.4408383620903 238.3077297845282) rotate(0 42 35.5)"><path d="M11.59 12.73 C11.59 12.73, 11.59 12.73, 11.59 12.73 M11.59 12.73 C11.59 12.73, 11.59 12.73, 11.59 12.73 M0.18 31.96 C4.64 23.1, 14.26 17.74, 21.83 7.05 M0.18 31.96 C7.94 23.81, 14.63 15.54, 21.83 7.05 M1.23 36.85 C9.07 29.67, 14.61 18.95, 32.07 1.37 M1.23 36.85 C10.38 25.84, 19.73 15.16, 32.07 1.37 M2.94 40.98 C9.26 30.81, 16.12 24.13, 37.05 1.73 M2.94 40.98 C10.72 33.12, 18.32 22.83, 37.05 1.73 M3.99 45.87 C19.09 29.25, 33.11 13.68, 42.04 2.09 M3.99 45.87 C13.51 35.66, 22.7 26.07, 42.04 2.09 M5.04 50.76 C21.32 33.34, 36.75 13.56, 47.03 2.45 M5.04 50.76 C13.96 40.57, 24.06 30.16, 47.03 2.45 M7.4 54.13 C18.14 40.81, 28.88 27.45, 52.01 2.81 M7.4 54.13 C17.12 44.29, 24.62 33.39, 52.01 2.81 M10.42 56.76 C27.48 35.36, 48 13.82, 57 3.17 M10.42 56.76 C28.55 34.45, 48.08 14.31, 57 3.17 M13.44 59.38 C29.28 44.43, 40.47 28.72, 61.33 4.29 M13.44 59.38 C30.06 40.2, 45.95 21.66, 61.33 4.29 M17.11 61.25 C32.57 44.66, 47.68 25.93, 64.35 6.91 M17.11 61.25 C35.64 41.48, 52.78 20.36, 64.35 6.91 M20.13 63.88 C31.58 51.16, 40.1 39.39, 67.37 9.54 M20.13 63.88 C34.49 46.97, 48.35 30.6, 67.37 9.54 M23.81 65.75 C43.59 43.68, 60.11 23.41, 71.04 11.41 M23.81 65.75 C41.09 47.19, 55.75 27.46, 71.04 11.41 M26.83 68.37 C35.84 58.15, 48.62 43.62, 74.06 14.03 M26.83 68.37 C39.2 56.35, 49.39 42.55, 74.06 14.03 M31.81 68.73 C43.48 55.08, 55.71 37.92, 77.08 16.66 M31.81 68.73 C43.26 54.76, 54.26 41.28, 77.08 16.66 M36.8 69.09 C49.5 52.51, 65.75 38.18, 80.1 19.28 M36.8 69.09 C54.94 48.8, 71.98 29.22, 80.1 19.28 M41.79 69.45 C51.17 54.6, 64.36 42.73, 81.15 24.17 M41.79 69.45 C50.87 60.37, 59.44 49.56, 81.15 24.17 M46.12 70.57 C51.7 62.04, 60.62 53.27, 82.2 29.06 M46.12 70.57 C59.87 53.63, 73.88 37.98, 82.2 29.06 M51.76 70.17 C61.99 58.02, 70.34 51.45, 83.25 33.95 M51.76 70.17 C61.02 58.74, 71.31 48.82, 83.25 33.95 M62 64.49 C69.64 55.52, 75.91 50.18, 84.3 38.83 M62 64.49 C68.8 58.43, 73.92 50.59, 84.3 38.83" stroke="#228be6" stroke-width="0.5" fill="none"></path><path d="M33.24 0.55 C40.89 -1.28, 52.15 0.53, 59.8 3.38 C67.46 6.23, 75.12 11.81, 79.18 17.63 C83.25 23.46, 85.35 31.56, 84.21 38.35 C83.08 45.14, 77.86 53.05, 72.38 58.39 C66.91 63.72, 59.23 68.87, 51.36 70.35 C43.48 71.84, 32.78 70.17, 25.14 67.29 C17.5 64.41, 9.7 58.97, 5.51 53.06 C1.32 47.14, -1.05 38.55, -0.01 31.8 C1.03 25.05, 6.04 17.92, 11.74 12.56 C17.45 7.2, 30.08 1.44, 34.22 -0.34 C38.36 -2.13, 36.2 1.06, 36.56 1.86 M46.17 -0.52 C54.21 -0.57, 64.53 3.04, 70.72 7.52 C76.91 12, 81.56 19.25, 83.3 26.37 C85.04 33.5, 84.7 43.83, 81.15 50.26 C77.6 56.7, 69.38 61.42, 62.01 64.98 C54.63 68.55, 44.68 71.95, 36.93 71.66 C29.17 71.37, 21.6 68.05, 15.47 63.23 C9.35 58.41, 2.13 49.92, 0.17 42.72 C-1.79 35.53, 0.21 26.21, 3.71 20.07 C7.22 13.94, 14.29 9.18, 21.2 5.94 C28.11 2.69, 41.14 1.39, 45.16 0.59 C49.19 -0.22, 45.34 0.76, 45.33 1.11" stroke="#000000" stroke-width="1" fill="none"></path></g><g transform="translate(862.7736035522553 253.70543905240578) rotate(0 24.46875 20)"><text x="24.46875" y="14.016" font-family="Virgil, Segoe UI Emoji" font-size="16px" fill="#1e1e1e" text-anchor="middle" style="white-space: pre;" direction="ltr" dominant-baseline="alphabetic">deploy</text><text x="24.46875" y="34.016" font-family="Virgil, Segoe UI Emoji" font-size="16px" fill="#1e1e1e" text-anchor="middle" style="white-space: pre;" direction="ltr" dominant-baseline="alphabetic">:deploy</text></g><g transform="translate(13.8994140625 372.81745861571017) rotate(0 79.7159652709961 17.5)"><text x="0" y="24.528" font-family="Virgil, Segoe UI Emoji" font-size="28px" fill="#1e1e1e" text-anchor="start" style="white-space: pre;" direction="ltr" dominant-baseline="alphabetic">Plugin Goal:</text></g><g stroke-linecap="round"><g transform="translate(327.1464961742763 237.68747111022873) rotate(0 2.589056555310833 -40.728296060982956)"><path d="M-0.05 -0.94 C0.76 -14.81, 3.25 -69.08, 4.17 -82.33 M-1.53 1.18 C-0.3 -12.64, 5.28 -67.35, 6.36 -81.25" stroke="#1e1e1e" stroke-width="2" fill="none"></path></g><g transform="translate(327.1464961742763 237.68747111022873) rotate(0 2.589056555310833 -40.728296060982956)"><path d="M12.74 -57.07 C9.43 -64.66, 7.99 -68.33, 6.36 -81.25 M12.74 -57.07 C10.74 -66.87, 7.23 -74.79, 6.36 -81.25" stroke="#1e1e1e" stroke-width="2" fill="none"></path></g><g transform="translate(327.1464961742763 237.68747111022873) rotate(0 2.589056555310833 -40.728296060982956)"><path d="M-4.29 -58.63 C-3.42 -65.83, -0.7 -69.12, 6.36 -81.25 M-4.29 -58.63 C0.29 -67.78, 3.36 -75.1, 6.36 -81.25" stroke="#1e1e1e" stroke-width="2" fill="none"></path></g></g><mask></mask><g stroke-linecap="round"><g transform="translate(447.36568912596294 238.96585261948024) rotate(0 0.897017539002718 -40.09213991649739)"><path d="M-0.31 -0.49 C0.16 -13.61, 1.44 -66.54, 1.85 -79.75 M1.72 -1.79 C2.12 -15.19, 0.95 -68.31, 0.93 -81.65" stroke="#1e1e1e" stroke-width="2" fill="none"></path></g><g transform="translate(447.36568912596294 238.96585261948024) rotate(0 0.897017539002718 -40.09213991649739)"><path d="M9.77 -58.27 C7.22 -63.34, 6.8 -67.96, 0.93 -81.65 M9.77 -58.27 C6.75 -66.05, 4.58 -73.82, 0.93 -81.65" stroke="#1e1e1e" stroke-width="2" fill="none"></path></g><g transform="translate(447.36568912596294 238.96585261948024) rotate(0 0.897017539002718 -40.09213991649739)"><path d="M-7.33 -58.05 C-6.12 -63.13, -2.77 -67.79, 0.93 -81.65 M-7.33 -58.05 C-4.59 -65.86, -1.01 -73.71, 0.93 -81.65" stroke="#1e1e1e" stroke-width="2" fill="none"></path></g></g><mask></mask><g stroke-linecap="round"><g transform="translate(565.9803589359419 237.15807070493918) rotate(0 2.4359413202304268 -37.31670990721608)"><path d="M0.74 0.37 C1.72 -12.08, 4.23 -61.55, 4.89 -74.25 M-0.33 -0.48 C0.58 -13.35, 3.26 -63.73, 3.95 -76.17" stroke="#1e1e1e" stroke-width="2" fill="none"></path></g><g transform="translate(565.9803589359419 237.15807070493918) rotate(0 2.4359413202304268 -37.31670990721608)"><path d="M11.21 -52.25 C10.14 -57.42, 8.57 -62.99, 3.95 -76.17 M11.21 -52.25 C10.78 -57.59, 8.03 -62.56, 3.95 -76.17" stroke="#1e1e1e" stroke-width="2" fill="none"></path></g><g transform="translate(565.9803589359419 237.15807070493918) rotate(0 2.4359413202304268 -37.31670990721608)"><path d="M-5.87 -53.18 C-3.19 -58.25, -1.02 -63.62, 3.95 -76.17 M-5.87 -53.18 C-2.83 -58.18, -2.11 -62.96, 3.95 -76.17" stroke="#1e1e1e" stroke-width="2" fill="none"></path></g></g><mask></mask><g stroke-linecap="round"><g transform="translate(767.4630468426269 240.57862083458463) rotate(0 3.633387703579615 -39.96167978389326)"><path d="M-1.03 0.14 C0.06 -13.18, 4.89 -67.79, 6.46 -80.97 M0.64 -0.83 C2.11 -13.94, 7.48 -66.66, 8.75 -79.99" stroke="#1e1e1e" stroke-width="2" fill="none"></path></g><g transform="translate(767.4630468426269 240.57862083458463) rotate(0 3.633387703579615 -39.96167978389326)"><path d="M14.94 -55.77 C13.56 -64.31, 9.75 -68.22, 8.75 -79.99 M14.94 -55.77 C13.34 -65.35, 9.92 -73.98, 8.75 -79.99" stroke="#1e1e1e" stroke-width="2" fill="none"></path></g><g transform="translate(767.4630468426269 240.57862083458463) rotate(0 3.633387703579615 -39.96167978389326)"><path d="M-2.08 -57.45 C1.54 -65.35, 2.75 -68.76, 8.75 -79.99 M-2.08 -57.45 C2.78 -66.35, 5.81 -74.33, 8.75 -79.99" stroke="#1e1e1e" stroke-width="2" fill="none"></path></g></g><mask></mask><g stroke-linecap="round"><g transform="translate(885.6806640625 239.05573986571022) rotate(0 2.6785334706585218 -39.659268005922996)"><path d="M-0.22 -0.39 C0.6 -13.8, 4.61 -67.12, 5.63 -80.2 M-1.8 -1.64 C-1.17 -14.95, 3.62 -65.9, 4.83 -79.13" stroke="#1e1e1e" stroke-width="2" fill="none"></path></g><g transform="translate(885.6806640625 239.05573986571022) rotate(0 2.6785334706585218 -39.659268005922996)"><path d="M11.19 -54.95 C8.23 -63.11, 5.13 -71.22, 4.83 -79.13 M11.19 -54.95 C8.32 -62.78, 6.34 -71.24, 4.83 -79.13" stroke="#1e1e1e" stroke-width="2" fill="none"></path></g><g transform="translate(885.6806640625 239.05573986571022) rotate(0 2.6785334706585218 -39.659268005922996)"><path d="M-5.84 -56.52 C-2.74 -64.09, 0.23 -71.64, 4.83 -79.13 M-5.84 -56.52 C-3.01 -63.78, 0.71 -71.72, 4.83 -79.13" stroke="#1e1e1e" stroke-width="2" fill="none"></path></g></g><mask></mask><g stroke-linecap="round" transform="translate(454.6533203125 336.72370861571017) rotate(0 64.84765625 56.75)"><path d="M13.46 20.97 C13.46 20.97, 13.46 20.97, 13.46 20.97 M13.46 20.97 C13.46 20.97, 13.46 20.97, 13.46 20.97 M5.32 36.43 C10.21 32.95, 14.86 26.79, 24.35 14.54 M5.32 36.43 C9.85 31.82, 14.55 25.97, 24.35 14.54 M2.44 45.84 C13.93 33.17, 25.06 17.95, 35.24 8.11 M2.44 45.84 C12.82 33.51, 23.34 20.77, 35.24 8.11 M2.83 51.49 C12.92 38.53, 28.58 24, 41.54 6.96 M2.83 51.49 C11.97 40.95, 21.9 28.16, 41.54 6.96 M2.57 57.88 C10.9 45.96, 22.26 34.94, 47.84 5.81 M2.57 57.88 C19.03 39.71, 34.34 22.39, 47.84 5.81 M2.96 63.53 C22.74 41.8, 37.82 22.1, 54.14 4.66 M2.96 63.53 C15.51 47.87, 28.32 34.57, 54.14 4.66 M3.36 69.17 C19.09 53.23, 30.12 36.9, 60.44 3.51 M3.36 69.17 C24.83 44.88, 46.23 20.48, 60.44 3.51 M3.75 74.81 C26.03 46.88, 50 23.18, 66.73 2.36 M3.75 74.81 C20.85 56.16, 37.03 35.84, 66.73 2.36 M6.12 78.19 C23.51 59.29, 39.9 38.26, 72.38 1.97 M6.12 78.19 C28.08 54.15, 49.66 28.59, 72.38 1.97 M8.48 81.57 C25.74 63.19, 41.76 43.83, 76.71 3.08 M8.48 81.57 C34.94 51.91, 60.1 22.67, 76.71 3.08 M11.5 84.2 C35 58.31, 58.65 31.47, 81.04 4.2 M11.5 84.2 C33.49 57.56, 56.18 33.56, 81.04 4.2 M13.86 87.57 C30.02 70.23, 43.32 54.24, 85.37 5.31 M13.86 87.57 C40.21 56.37, 66.75 25.71, 85.37 5.31 M16.22 90.95 C43.76 59.98, 74.95 23.95, 89.7 6.43 M16.22 90.95 C39.58 63.04, 65.28 34.46, 89.7 6.43 M18.59 94.33 C41.73 66.76, 67.48 37.43, 94.03 7.54 M18.59 94.33 C42.22 65.26, 67.09 38.12, 94.03 7.54 M20.95 97.71 C49.81 61.79, 80.09 29.45, 98.36 8.66 M20.95 97.71 C47.49 69.22, 72.18 38.65, 98.36 8.66 M24.62 99.58 C45.52 78.82, 61.68 56.18, 102.69 9.77 M24.62 99.58 C53.25 65.53, 82.71 32.13, 102.69 9.77 M28.3 101.45 C52.1 71.26, 79.55 44.74, 105.71 12.39 M28.3 101.45 C55.35 69.32, 83.29 37.14, 105.71 12.39 M31.32 104.07 C46.45 84.74, 62.66 69.53, 108.08 15.77 M31.32 104.07 C56.02 76.26, 81.03 47, 108.08 15.77 M34.99 105.94 C53.68 83.78, 74.45 61.35, 111.09 18.4 M34.99 105.94 C53.39 84.41, 72 64.12, 111.09 18.4 M38.67 107.81 C57.2 88.5, 70.57 68.98, 114.11 21.02 M38.67 107.81 C59.36 83.08, 80.6 57.3, 114.11 21.02 M41.69 110.44 C60.77 86.66, 80.98 62.95, 117.13 23.65 M41.69 110.44 C62.49 86.66, 82.4 63.34, 117.13 23.65 M46.02 111.55 C73.7 80.12, 99.75 52.77, 120.15 26.27 M46.02 111.55 C63.45 90.76, 80.3 70.02, 120.15 26.27 M51 111.91 C72.64 85.22, 95.74 61.38, 123.17 28.89 M51 111.91 C74.63 84.29, 101.09 54.31, 123.17 28.89 M55.99 112.27 C85.48 81.22, 110.53 49.53, 124.22 33.78 M55.99 112.27 C74.69 92.01, 91.22 72.74, 124.22 33.78 M60.98 112.63 C82.81 86.13, 106.25 61.15, 125.27 38.67 M60.98 112.63 C73.84 96.11, 87.36 81.51, 125.27 38.67 M66.62 112.24 C78.73 98.12, 90.23 84.79, 126.98 42.8 M66.62 112.24 C81.74 95.59, 95.51 78, 126.98 42.8 M71.61 112.6 C85.95 93.78, 99.41 78.71, 128.03 47.69 M71.61 112.6 C83.47 98.13, 97.68 84.43, 128.03 47.69 M76.59 112.96 C95.5 90.86, 116.13 68.98, 129.74 51.83 M76.59 112.96 C91.28 95.93, 103.86 80.05, 129.74 51.83 M84.21 110.3 C94.59 94.28, 107.08 81.8, 131.44 55.96 M84.21 110.3 C102.7 87.91, 121.74 66.89, 131.44 55.96 M92.47 106.89 C104.31 92.72, 115.07 81.73, 129.87 63.87 M92.47 106.89 C105.45 90.7, 120.04 75.37, 129.87 63.87 M100.74 103.47 C109.41 92.28, 119.08 82.35, 128.3 71.77 M100.74 103.47 C109.95 92.37, 119.9 81.72, 128.3 71.77" stroke="#228be6" stroke-width="0.5" fill="none"></path><path d="M39.69 5.47 C48.06 1.41, 60.13 -0.35, 70.16 0.02 C80.2 0.38, 91.4 3.03, 99.91 7.65 C108.42 12.26, 116.43 20.05, 121.23 27.7 C126.03 35.36, 128.33 44.84, 128.71 53.55 C129.1 62.26, 127.66 71.9, 123.54 79.98 C119.42 88.06, 111.88 96.57, 104 102.03 C96.11 107.49, 86.01 111.13, 76.25 112.75 C66.49 114.36, 54.94 114.5, 45.45 111.71 C35.96 108.92, 26.46 102.38, 19.32 96.03 C12.18 89.69, 5.69 82.16, 2.6 73.65 C-0.48 65.13, -1 53.72, 0.81 44.94 C2.62 36.16, 5.92 28.1, 13.45 20.98 C20.98 13.85, 39.28 5.42, 46.01 2.2 C52.73 -1.02, 53.52 0.69, 53.81 1.65 M48.9 1.81 C58.34 -0.5, 72.17 1, 82.34 3.19 C92.5 5.39, 102.76 9.34, 109.89 14.98 C117.02 20.62, 121.92 28.56, 125.11 37.04 C128.3 45.52, 130.19 57.31, 129.03 65.88 C127.87 74.45, 123.94 81.47, 118.15 88.44 C112.36 95.41, 103.48 103.68, 94.29 107.7 C85.1 111.72, 73.22 112.85, 63.01 112.58 C52.81 112.31, 41.75 109.98, 33.05 106.08 C24.35 102.18, 16.42 96.25, 10.82 89.18 C5.22 82.11, 0.3 72.56, -0.56 63.65 C-1.43 54.74, 1.91 43.85, 5.64 35.73 C9.38 27.6, 14.54 20.5, 21.85 14.9 C29.15 9.31, 44.49 4.37, 49.47 2.16 C54.45 -0.05, 51.46 0.77, 51.75 1.62" stroke="#000000" stroke-width="1" fill="none"></path></g><g transform="translate(479.8627930196177 363.34539878337364) rotate(0 39.783966064453125 30)"><text x="39.783966064453125" y="14.016" font-family="Virgil, Segoe UI Emoji" font-size="16px" fill="#1e1e1e" text-anchor="middle" style="white-space: pre;" direction="ltr" dominant-baseline="alphabetic">jacoco-</text><text x="39.783966064453125" y="34.016" font-family="Virgil, Segoe UI Emoji" font-size="16px" fill="#1e1e1e" text-anchor="middle" style="white-space: pre;" direction="ltr" dominant-baseline="alphabetic">maven-</text><text x="39.783966064453125" y="54.016" font-family="Virgil, Segoe UI Emoji" font-size="16px" fill="#1e1e1e" text-anchor="middle" style="white-space: pre;" direction="ltr" dominant-baseline="alphabetic">plugin:test</text></g><g stroke-linecap="round"><g transform="translate(514.7323136693622 334.64965779255454) rotate(0 -4.520488471279009 -88.09470858874042)"><path d="M-0.86 -0.88 C-2.38 -30.23, -8.26 -148.14, -9.77 -177.21 M0.89 1.27 C-0.19 -27.86, -6.05 -146.46, -7.44 -176.21" stroke="#1e1e1e" stroke-width="2" fill="none"></path></g><g transform="translate(514.7323136693622 334.64965779255454) rotate(0 -4.520488471279009 -88.09470858874042)"><path d="M2.23 -153.15 C-1.4 -160.1, -4 -166, -7.44 -176.21 M2.23 -153.15 C-2.12 -160.92, -4.45 -170.88, -7.44 -176.21" stroke="#1e1e1e" stroke-width="2" fill="none"></path></g><g transform="translate(514.7323136693622 334.64965779255454) rotate(0 -4.520488471279009 -88.09470858874042)"><path d="M-14.85 -152.33 C-14.28 -159.35, -12.69 -165.46, -7.44 -176.21 M-14.85 -152.33 C-12.83 -160.43, -8.79 -170.69, -7.44 -176.21" stroke="#1e1e1e" stroke-width="2" fill="none"></path></g></g><mask></mask><g stroke-linecap="round" transform="translate(265.2705078125 343.84480236571017) rotate(0 75.16015625 49.5)"><path d="M9.41 25.4 C9.41 25.4, 9.41 25.4, 9.41 25.4 M9.41 25.4 C9.41 25.4, 9.41 25.4, 9.41 25.4 M4.56 37.09 C11.83 31.17, 17.03 24.04, 22.27 16.71 M4.56 37.09 C9.34 31.2, 12.53 27.82, 22.27 16.71 M0.36 48.01 C9.29 38.66, 16.72 29.13, 35.13 8.01 M0.36 48.01 C12.51 32.85, 25.61 19.6, 35.13 8.01 M2.06 52.15 C18.03 36.82, 31.39 17.54, 42.08 6.11 M2.06 52.15 C16.56 34.59, 31.65 18.41, 42.08 6.11 M3.12 57.03 C15.29 42.17, 26.2 31.98, 49.04 4.2 M3.12 57.03 C14.07 44.03, 26.1 32.02, 49.04 4.2 M4.82 61.17 C22.05 38.97, 40.55 19.46, 55.99 2.3 M4.82 61.17 C24.37 39.92, 43.62 16.64, 55.99 2.3 M5.87 66.06 C19.84 49.01, 34.57 32.42, 62.95 0.4 M5.87 66.06 C27.23 41.62, 47.46 16.78, 62.95 0.4 M7.58 70.19 C21.69 52.65, 33.58 38.74, 69.25 -0.75 M7.58 70.19 C26.18 46.97, 44.8 24.77, 69.25 -0.75 M9.94 73.57 C21.93 58.15, 36.31 43.28, 74.24 -0.39 M9.94 73.57 C30.61 50.98, 51.1 27.41, 74.24 -0.39 M13.62 75.44 C27.81 56.36, 43.75 38.26, 78.57 0.72 M13.62 75.44 C27.27 59.1, 41.73 42.61, 78.57 0.72 M16.64 78.06 C36.92 51.59, 60.53 27.29, 83.55 1.08 M16.64 78.06 C38.09 54.3, 57.8 31.06, 83.55 1.08 M19.65 80.69 C37.63 59.54, 56.74 36.28, 88.54 1.44 M19.65 80.69 C36.08 62.49, 51.1 45.98, 88.54 1.44 M22.67 83.31 C41.25 60.93, 57.44 42.65, 93.53 1.8 M22.67 83.31 C43.9 59.31, 65.86 34.95, 93.53 1.8 M26.35 85.18 C49.18 55.54, 74.83 30.51, 98.51 2.16 M26.35 85.18 C45.63 64.6, 62.64 43.89, 98.51 2.16 M29.37 87.8 C46.77 63.45, 66.5 40.93, 102.85 3.28 M29.37 87.8 C53.08 60.46, 77.01 32.45, 102.85 3.28 M33.04 89.67 C55.06 63.94, 77.12 40.52, 106.52 5.15 M33.04 89.67 C59.27 60.19, 84.89 31.31, 106.52 5.15 M36.72 91.54 C53.63 68.95, 70.37 51.53, 110.2 7.02 M36.72 91.54 C60.27 63.12, 85.33 35.59, 110.2 7.02 M41.05 92.66 C62.06 66.84, 84.19 41.47, 113.87 8.89 M41.05 92.66 C62.45 66.22, 85.88 40.22, 113.87 8.89 M45.38 93.77 C70.16 66.86, 91.55 40.75, 117.55 10.75 M45.38 93.77 C67.46 68.21, 92.86 40.77, 117.55 10.75 M49.71 94.89 C79.22 64.37, 105.93 33.3, 121.22 12.62 M49.71 94.89 C68.81 72.07, 88.71 50.86, 121.22 12.62 M53.38 96.76 C71.87 76.46, 88.35 52.65, 124.9 14.49 M53.38 96.76 C70.84 75.23, 90.71 52.6, 124.9 14.49 M57.72 97.87 C77.51 77.65, 93.99 55.98, 128.57 16.36 M57.72 97.87 C80.08 70.32, 104.4 44.91, 128.57 16.36 M62.05 98.99 C81.69 79.83, 99.38 56.09, 132.24 18.23 M62.05 98.99 C86.6 71.68, 108.9 44.37, 132.24 18.23 M67.03 99.35 C88.49 75.98, 107.1 52.62, 134.61 21.61 M67.03 99.35 C87.75 77.03, 107.18 53.55, 134.61 21.61 M73.33 98.2 C93.43 77.71, 112.19 55.16, 137.63 24.24 M73.33 98.2 C91.72 77.77, 109.71 55.51, 137.63 24.24 M78.98 97.8 C91.66 84.31, 105.01 67.82, 139.99 27.61 M78.98 97.8 C101.76 71.42, 124.36 46.21, 139.99 27.61 M84.62 97.41 C98.78 78.59, 113.75 60.91, 142.35 30.99 M84.62 97.41 C102.2 77.99, 118.52 56.66, 142.35 30.99 M90.92 96.26 C107.01 78.91, 121.15 61.97, 145.37 33.62 M90.92 96.26 C104.62 80.27, 117.41 65.01, 145.37 33.62 M96.56 95.86 C108.14 83.23, 120.43 68.25, 147.73 37 M96.56 95.86 C112.2 76.98, 128.74 59.53, 147.73 37 M102.2 95.47 C111.58 82.6, 123.27 74.99, 148.78 41.89 M102.2 95.47 C112.29 82.96, 122.84 69.75, 148.78 41.89 M110.47 92.06 C121.41 80.33, 129.4 68.64, 148.52 48.28 M110.47 92.06 C121.07 79.83, 133.1 65.86, 148.52 48.28 M118.08 89.4 C125.37 80.73, 134.37 72.09, 147.61 55.44 M118.08 89.4 C127.62 79.69, 136.05 70.45, 147.61 55.44 M125.69 86.74 C133.81 76.84, 141.6 68.98, 146.69 62.59 M125.69 86.74 C134 77.65, 142.21 68.29, 146.69 62.59" stroke="#228be6" stroke-width="0.5" fill="none"></path><path d="M67.72 -0.72 C78.57 -2.13, 92.17 -0.38, 102.9 2.84 C113.63 6.06, 124.46 12.73, 132.11 18.61 C139.75 24.48, 146.31 30.79, 148.75 38.07 C151.18 45.35, 149.73 54.62, 146.7 62.29 C143.67 69.96, 138.35 78.57, 130.58 84.08 C122.8 89.59, 111.09 92.82, 100.04 95.35 C89 97.89, 75.82 100.33, 64.32 99.29 C52.81 98.25, 40.45 93.78, 31 89.13 C21.54 84.47, 12.73 78.32, 7.58 71.35 C2.44 64.38, -0.19 54.97, 0.12 47.31 C0.43 39.65, 3.6 31.96, 9.43 25.38 C15.26 18.8, 24.68 11.97, 35.08 7.83 C45.48 3.68, 64.66 1.77, 71.86 0.51 C79.05 -0.74, 77.91 -0.41, 78.23 0.28 M48 3.11 C58.09 -0.31, 72.53 -0.1, 83.93 1.01 C95.34 2.12, 106.93 5.49, 116.43 9.75 C125.94 14.01, 135.55 19.99, 140.96 26.57 C146.37 33.16, 148.9 41.5, 148.9 49.25 C148.89 56.99, 146.21 66.32, 140.92 73.04 C135.64 79.76, 126.35 85.23, 117.19 89.57 C108.03 93.92, 97.31 97.86, 85.97 99.13 C74.62 100.39, 60.37 99.87, 49.12 97.18 C37.86 94.5, 26.04 88.69, 18.42 83.01 C10.79 77.33, 6.31 70.67, 3.37 63.11 C0.42 55.55, -1.92 45.18, 0.74 37.66 C3.4 30.15, 11.6 23.71, 19.32 18.03 C27.04 12.36, 42.21 6.05, 47.06 3.61 C51.9 1.18, 47.77 2.74, 48.4 3.44" stroke="#000000" stroke-width="1" fill="none"></path></g><g transform="translate(292.5724480642174 363.34301669697606) rotate(0 47.71195983886719 30)"><text x="47.71195983886719" y="14.016" font-family="Virgil, Segoe UI Emoji" font-size="16px" fill="#1e1e1e" text-anchor="middle" style="white-space: pre;" direction="ltr" dominant-baseline="alphabetic">maven-</text><text x="47.71195983886719" y="34.016" font-family="Virgil, Segoe UI Emoji" font-size="16px" fill="#1e1e1e" text-anchor="middle" style="white-space: pre;" direction="ltr" dominant-baseline="alphabetic">compiler-</text><text x="47.71195983886719" y="54.016" font-family="Virgil, Segoe UI Emoji" font-size="16px" fill="#1e1e1e" text-anchor="middle" style="white-space: pre;" direction="ltr" dominant-baseline="alphabetic">plugin:compile</text></g><g stroke-linecap="round"><g transform="translate(346.5860566546213 341.2499313198889) rotate(0 19.22699120393935 -88.91338369489327)"><path d="M1.17 -1.05 C7.6 -10.26, 32.81 -25.79, 38.39 -55.36 C43.97 -84.92, 35.21 -158.15, 34.64 -178.43 M0.32 1.02 C6.61 -7.98, 31.87 -24.05, 37.41 -53.79 C42.96 -83.53, 33.97 -156.53, 33.59 -177.43" stroke="#1e1e1e" stroke-width="2" fill="none"></path></g><g transform="translate(346.5860566546213 341.2499313198889) rotate(0 19.22699120393935 -88.91338369489327)"><path d="M43.7 -154.56 C39.12 -161.01, 38.13 -168.26, 33.59 -177.43 M43.7 -154.56 C40.77 -159.94, 39.24 -165.34, 33.59 -177.43" stroke="#1e1e1e" stroke-width="2" fill="none"></path></g><g transform="translate(346.5860566546213 341.2499313198889) rotate(0 19.22699120393935 -88.91338369489327)"><path d="M26.64 -153.41 C26.87 -160.35, 30.68 -167.92, 33.59 -177.43 M26.64 -153.41 C27.98 -159.2, 30.71 -164.88, 33.59 -177.43" stroke="#1e1e1e" stroke-width="2" fill="none"></path></g></g><mask></mask></svg>